<svg width="706" height="904" viewBox="0 0 706 904" fill="none" xmlns="http://www.w3.org/2000/svg">
<path opacity="0.07" d="M636.7 431.2C662.7 408.9 678.7 367.4 678.7 311.4C678.7 196.4 611.3 64.2 528.3 17.2C445.2 -29.9 379 25.3 379.8 141.2C380.2 196.3 396 255.4 421.5 306.8C441.2 346.4 454.1 390.6 458.4 431.7C460.1 449.3 470.6 467.5 482.7 474.5L575.5 528C587.7 535.1 598.1 528.7 600 513.2C604.2 477.1 616.9 448.3 636.7 431.2Z" fill="url(#paint0_linear)"/>
<path opacity="0.07" d="M598.2 621.2V596.6C598.2 583.4 590.6 568.5 581.1 562.8L476.9 502.6C467.4 497.1 459.8 503.3 459.8 516.5V541.1C459.8 560.9 470.2 582.9 483.8 593.7L574.4 646C587.8 651.1 598.2 640.8 598.2 621.2Z" fill="url(#paint1_linear)"/>
<path opacity="0.4" d="M586.6 471C612.6 448.7 628.6 407.2 628.6 351.2C628.6 236.2 561.2 104 478.2 57C395 9.90001 328.9 65.1 329.7 181C330.1 236.1 345.9 295.2 371.4 346.6C391.1 386.2 404 430.4 408.3 471.5C410 489.1 420.5 507.3 432.6 514.3L525.4 567.8C537.6 574.9 548 568.5 549.9 553C554.2 516.9 566.9 488 586.6 471Z" fill="url(#paint2_linear)"/>
<path opacity="0.4" d="M548.2 661V636.4C548.2 623.2 540.6 608.3 531.1 602.6L426.9 542.4C417.4 536.9 409.8 543.1 409.8 556.3V580.9C409.8 600.7 420.2 622.7 433.8 633.5L524.4 685.8C537.8 690.9 548.2 680.6 548.2 661Z" fill="url(#paint3_linear)"/>
<path opacity="0.3" d="M329.3 669.6L31.7002 497.8L31.8002 652.9L303.1 809.5L329.4 848.4L329.3 669.6Z" fill="url(#paint4_linear)"/>
<path d="M0 558.3V516.2L112.4 581V623.1L0 558.3Z" fill="#F2994A"/>
<path opacity="0.15" d="M252.8 663.2L187.6 625.6V639.2L252.8 676.8V663.2Z" fill="white"/>
<path opacity="0.15" d="M252.8 690.5L127.1 618V631.6L252.8 704.1V690.5Z" fill="white"/>
<path opacity="0.15" d="M252.8 717.7L100.5 629.8V643.4L252.8 731.3V717.7Z" fill="white"/>
<path d="M268.9 686.7C268.9 699.5 276.5 714.2 285.8 719.6C295.1 725 302.7 719 302.7 706.2C302.7 693.4 295.1 678.7 285.8 673.3C276.4 667.9 268.9 673.9 268.9 686.7Z" fill="#F2994A"/>
<path opacity="0.3" d="M352.5 576.3L650 748.1L650.1 903.2L378.8 746.6L352.6 755.2L352.5 576.3Z" fill="url(#paint5_linear)"/>
<path d="M563.5 775.4V733.3L675.8 798.1V840.2L563.5 775.4Z" fill="#F2C94C"/>
<path opacity="0.15" d="M429 658.3L494.2 695.9V709.5L429 671.9V658.3Z" fill="white"/>
<path opacity="0.15" d="M429 685.5L546.7 753.4V767L429 699.2V685.5Z" fill="white"/>
<path opacity="0.15" d="M429 712.8L581.3 800.7V814.3L429 726.4V712.8Z" fill="white"/>
<path d="M412.9 663.2C412.9 676 405.3 682 396 676.6C386.7 671.2 379.1 656.5 379.1 643.7C379.1 630.9 386.7 624.9 396 630.3C405.4 635.7 412.9 650.4 412.9 663.2Z" fill="#F2C94C"/>
<path opacity="0.15" d="M684.5 563.3L692 579.9L628.8 594.6L694.5 686.1L687 694L606.3 581.5L684.5 563.3Z" fill="white"/>
<path d="M705.4 581.9C705.4 594.8 697.8 600.9 688.5 595.6C679.2 590.2 671.6 575.4 671.6 562.4C671.6 549.5 679.2 543.4 688.5 548.7C697.8 554.1 705.4 569 705.4 581.9Z" fill="#F2994A"/>
<path d="M705.4 696.5C705.4 709.4 697.8 715.5 688.5 710.2C679.2 704.8 671.6 690 671.6 677C671.6 664.1 679.2 658 688.5 663.3C697.8 668.8 705.4 683.6 705.4 696.5Z" fill="#F2994A"/>
<path d="M633.3 596.1C633.3 609 625.7 615.1 616.4 609.8C607.1 604.4 599.5 589.6 599.5 576.6C599.5 563.7 607.1 557.6 616.4 562.9C625.7 568.3 633.3 583.2 633.3 596.1Z" fill="#F2C94C"/>
<path opacity="0.3" d="M161.8 253.6L329.4 350.3V660.8L161.8 564.1V253.6Z" fill="url(#paint6_linear)"/>
<path opacity="0.15" d="M178.3 437.9L312.9 515.6V529.2L178.3 451.5V437.9Z" fill="white"/>
<path opacity="0.15" d="M187.7 469.9L303.4 536.7V550.3L187.7 483.5V469.9Z" fill="white"/>
<path d="M236.6 525.4L120 458.1V492.8L236.6 560.1V525.4Z" fill="#F2C94C"/>
<path d="M264.7 375.7C264.7 390.7 256 397.8 245.3 391.6C234.6 385.3 225.9 368.1 225.9 353C225.9 338 234.6 330.9 245.3 337.1C256 343.4 264.7 360.7 264.7 375.7Z" fill="#F2C94C"/>
<path d="M245.2 403.7C227.9 393.6 213.6 403.1 211.1 424.8C210.7 428.6 213.5 433.6 217 435.6L273.4 468.6C276.9 470.6 279.7 469 279.3 464.7C276.9 439.9 262.5 413.8 245.2 403.7Z" fill="#F2C94C"/>
<path opacity="0.2" d="M408 884.6C347.5 806.8 391.3 778.6 408 824.2C424.7 798 468.5 876.6 408 884.6Z" fill="url(#paint7_linear)"/>
<defs>
<linearGradient id="paint0_linear" x1="646.567" y1="146.717" x2="340.522" y2="425.372" gradientUnits="userSpaceOnUse">
<stop stop-color="white"/>
<stop offset="1" stop-color="white" stop-opacity="0"/>
</linearGradient>
<linearGradient id="paint1_linear" x1="804.944" y1="320.613" x2="498.899" y2="599.268" gradientUnits="userSpaceOnUse">
<stop stop-color="white"/>
<stop offset="1" stop-color="white" stop-opacity="0"/>
</linearGradient>
<linearGradient id="paint2_linear" x1="596.548" y1="186.498" x2="290.503" y2="465.152" gradientUnits="userSpaceOnUse">
<stop stop-color="white"/>
<stop offset="1" stop-color="white" stop-opacity="0"/>
</linearGradient>
<linearGradient id="paint3_linear" x1="754.925" y1="360.392" x2="448.881" y2="639.047" gradientUnits="userSpaceOnUse">
<stop stop-color="white"/>
<stop offset="1" stop-color="white" stop-opacity="0"/>
</linearGradient>
<linearGradient id="paint4_linear" x1="264.409" y1="607.477" x2="110.759" y2="727.781" gradientUnits="userSpaceOnUse">
<stop stop-color="white"/>
<stop offset="1" stop-color="white" stop-opacity="0"/>
</linearGradient>
<linearGradient id="paint5_linear" x1="480.289" y1="581.352" x2="518.758" y2="893.382" gradientUnits="userSpaceOnUse">
<stop stop-color="white"/>
<stop offset="1" stop-color="white" stop-opacity="0"/>
</linearGradient>
<linearGradient id="paint6_linear" x1="347.32" y1="280.966" x2="198.553" y2="538.705" gradientUnits="userSpaceOnUse">
<stop stop-color="white"/>
<stop offset="1" stop-color="white" stop-opacity="0"/>
</linearGradient>
<linearGradient id="paint7_linear" x1="420.773" y1="827.2" x2="376.01" y2="865.87" gradientUnits="userSpaceOnUse">
<stop stop-color="white"/>
<stop offset="1" stop-color="white" stop-opacity="0"/>
</linearGradient>
</defs>
</svg>
