<?xml version="1.0" encoding="UTF-8" standalone="no"?><!-- Generator: Gravit.io --><svg xmlns="http://www.w3.org/2000/svg" xmlns:xlink="http://www.w3.org/1999/xlink" style="isolation:isolate" viewBox="0 0 1139.171 654.543" width="1139.171pt" height="654.543pt"><circle vector-effect="non-scaling-stroke" cx="246.82682" cy="521.76476" r="59.24333999999999" fill="rgb(242,242,242)"/><circle vector-effect="non-scaling-stroke" cx="256.45989" cy="513.095" r="59.24333999999999" fill="rgb(159,231,255)"/><rect x="304.171" y="447.543" width="733" height="2" transform="matrix(1,0,0,1,0,0)" fill="rgb(63,61,86)"/><path d=" M 683.793 18.652 L 423.623 18.652 L 423.623 13.29 L 305.652 13.29 L 305.652 18.652 L 44.41 18.652 C 39.743 18.652 35.266 20.506 31.966 23.807 C 28.666 27.107 26.812 31.583 26.812 36.251 L 26.812 392.503 C 26.812 402.222 34.691 410.101 44.41 410.101 L 683.793 410.101 C 693.512 410.101 701.391 402.222 701.391 392.503 L 701.391 36.251 C 701.391 31.583 699.537 27.107 696.237 23.807 C 692.936 20.506 688.46 18.652 683.793 18.652 L 683.793 18.652 Z " fill="rgb(63,61,86)"/><rect x="50.406" y="49.754" width="627.391" height="353.913" transform="matrix(1,0,0,1,0,0)" fill="rgb(255,255,255)"/><circle vector-effect="non-scaling-stroke" cx="363.56522" cy="33.66667" r="6.434779999999989" fill="rgb(159,231,255)"/><defs><filter id="ahXCaCiHxgMuoQhUb0ms8MZe0FQIOSUE" x="-200%" y="-200%" width="400%" height="400%" filterUnits="objectBoundingBox" color-interpolation-filters="sRGB"><feGaussianBlur xmlns="http://www.w3.org/2000/svg" stdDeviation="1.6315714438788307"/></filter></defs><g opacity="0.1" filter="url(#ahXCaCiHxgMuoQhUb0ms8MZe0FQIOSUE)"><path d=" M 498.374 403.667 L 50.406 403.667 L 50.406 49.754 L 498.374 403.667 L 498.374 403.667 Z " fill="rgb(159,231,255)"/></g><circle vector-effect="non-scaling-stroke" cx="148.57375" cy="316.87641" r="60.30680000000001" fill="rgb(242,242,242)"/><rect x="509.953" y="240.622" width="58.605" height="12.246" transform="matrix(1,0,0,1,0,0)" fill="rgb(159,231,255)"/><rect x="439.102" y="145.279" width="200.307" height="5.248" transform="matrix(1,0,0,1,0,0)" fill="rgb(63,61,86)"/><rect x="439.102" y="161.898" width="200.307" height="5.248" transform="matrix(1,0,0,1,0,0)" fill="rgb(63,61,86)"/><rect x="439.102" y="178.518" width="200.307" height="5.248" transform="matrix(1,0,0,1,0,0)" fill="rgb(63,61,86)"/><rect x="439.102" y="195.137" width="200.307" height="5.248" transform="matrix(1,0,0,1,0,0)" fill="rgb(63,61,86)"/><rect x="439.102" y="211.757" width="200.307" height="5.248" transform="matrix(1,0,0,1,0,0)" fill="rgb(63,61,86)"/><rect x="614.917" y="56.934" width="24.492" height="24.492" transform="matrix(1,0,0,1,0,0)" fill="rgb(242,242,242)"/><path d=" M 650.78 92.797 L 621.04 92.797 L 621.04 63.057 L 650.78 63.057 L 650.78 92.797 Z  M 622.333 91.504 L 649.487 91.504 L 649.487 64.35 L 622.333 64.35 L 622.333 91.504 Z " fill="rgb(63,61,86)"/><path d=" M 719.007 397.232 L 657.778 397.232 L 657.778 392.82 C 657.778 392.588 657.686 392.366 657.522 392.202 C 657.358 392.038 657.135 391.946 656.903 391.946 L 635.91 391.946 C 635.678 391.946 635.456 392.038 635.292 392.202 C 635.128 392.366 635.035 392.588 635.035 392.82 L 635.035 397.232 L 621.915 397.232 L 621.915 392.82 C 621.915 392.588 621.823 392.366 621.659 392.202 C 621.495 392.038 621.272 391.946 621.04 391.946 L 600.047 391.946 C 599.815 391.946 599.593 392.038 599.429 392.202 C 599.265 392.366 599.173 392.588 599.173 392.82 L 599.173 397.232 L 586.052 397.232 L 586.052 392.82 C 586.052 392.588 585.96 392.366 585.796 392.202 C 585.632 392.038 585.409 391.946 585.177 391.946 L 564.184 391.946 C 563.952 391.946 563.73 392.038 563.566 392.202 C 563.402 392.366 563.31 392.588 563.31 392.82 L 563.31 397.232 L 550.189 397.232 L 550.189 392.82 C 550.189 392.588 550.097 392.366 549.933 392.202 C 549.769 392.038 549.546 391.946 549.314 391.946 L 528.322 391.946 C 528.09 391.946 527.867 392.038 527.703 392.202 C 527.539 392.366 527.447 392.588 527.447 392.82 L 527.447 397.232 L 514.326 397.232 L 514.326 392.82 C 514.326 392.588 514.234 392.366 514.07 392.202 C 513.906 392.038 513.684 391.946 513.452 391.946 L 492.459 391.946 C 492.227 391.946 492.004 392.038 491.84 392.202 C 491.676 392.366 491.584 392.588 491.584 392.82 L 491.584 397.232 L 478.463 397.232 L 478.463 392.82 C 478.463 392.588 478.371 392.366 478.207 392.202 C 478.043 392.038 477.821 391.946 477.589 391.946 L 456.596 391.946 C 456.364 391.946 456.141 392.038 455.977 392.202 C 455.813 392.366 455.721 392.588 455.721 392.82 L 455.721 397.232 L 442.6 397.232 L 442.6 392.82 C 442.6 392.588 442.508 392.366 442.344 392.202 C 442.18 392.038 441.958 391.946 441.726 391.946 L 277.281 391.946 C 277.049 391.946 276.827 392.038 276.663 392.202 C 276.499 392.366 276.407 392.588 276.407 392.82 L 276.407 397.232 L 263.286 397.232 L 263.286 392.82 C 263.286 392.588 263.194 392.366 263.03 392.202 C 262.866 392.038 262.643 391.946 262.411 391.946 L 241.418 391.946 C 241.186 391.946 240.964 392.038 240.8 392.202 C 240.636 392.366 240.544 392.588 240.544 392.82 L 240.544 397.232 L 227.423 397.232 L 227.423 392.82 C 227.423 392.588 227.331 392.366 227.167 392.202 C 227.003 392.038 226.78 391.946 226.548 391.946 L 205.556 391.946 C 205.324 391.946 205.101 392.038 204.937 392.202 C 204.773 392.366 204.681 392.588 204.681 392.82 L 204.681 397.232 L 191.56 397.232 L 191.56 392.82 C 191.56 392.588 191.468 392.366 191.304 392.202 C 191.14 392.038 190.918 391.946 190.686 391.946 L 169.693 391.946 C 169.461 391.946 169.238 392.038 169.074 392.202 C 168.91 392.366 168.818 392.588 168.818 392.82 L 168.818 397.232 L 155.697 397.232 L 155.697 392.82 C 155.697 392.588 155.605 392.366 155.441 392.202 C 155.277 392.038 155.055 391.946 154.823 391.946 L 133.83 391.946 C 133.598 391.946 133.375 392.038 133.211 392.202 C 133.047 392.366 132.955 392.588 132.955 392.82 L 132.955 397.232 L 119.835 397.232 L 119.835 392.82 C 119.835 392.588 119.742 392.366 119.578 392.202 C 119.414 392.038 119.192 391.946 118.96 391.946 L 97.967 391.946 C 97.735 391.946 97.512 392.038 97.348 392.202 C 97.184 392.366 97.092 392.588 97.092 392.82 L 97.092 397.232 L 83.972 397.232 L 83.972 392.82 C 83.972 392.588 83.879 392.366 83.715 392.202 C 83.551 392.038 83.329 391.946 83.097 391.946 L 62.104 391.946 C 61.872 391.946 61.65 392.038 61.486 392.202 C 61.321 392.366 61.229 392.588 61.229 392.82 L 61.229 397.232 L 20.993 397.232 C 9.399 397.232 0 406.631 0 418.225 L 0 427.717 C 0 439.311 9.399 448.71 20.993 448.71 L 719.007 448.71 C 730.601 448.71 740 439.311 740 427.717 L 740 418.225 C 740 406.631 730.601 397.232 719.007 397.232 L 719.007 397.232 Z " fill="rgb(63,61,86)"/><path d=" M 163.171 354.543 C 121.198 354.543 87.171 320.517 87.171 278.543 C 87.171 236.57 121.198 202.543 163.171 202.543 C 205.145 202.543 239.171 236.57 239.171 278.543 C 239.124 320.497 205.125 354.496 163.171 354.543 L 163.171 354.543 Z  M 163.171 204.543 C 122.302 204.543 89.171 237.674 89.171 278.543 C 89.171 319.412 122.302 352.543 163.171 352.543 C 204.04 352.543 237.171 319.412 237.171 278.543 C 237.125 237.693 204.021 204.589 163.171 204.543 L 163.171 204.543 Z " fill="rgb(63,61,86)"/><rect x="586.171" y="32.543" width="255" height="2" transform="matrix(1,0,0,1,0,0)" fill="rgb(63,61,86)"/><rect x="406.171" y="560.543" width="733" height="2" transform="matrix(1,0,0,1,0,0)" fill="rgb(63,61,86)"/><rect x="192.672" y="652.543" width="255" height="2" transform="matrix(1,0,0,1,0,0)" fill="rgb(63,61,86)"/><rect x="471" y="550" width="28" height="28" transform="matrix(1,0,0,1,0,0)" fill="rgb(159,231,255)"/><path d=" M 516 562 L 482 562 L 482 528 L 516 528 L 516 562 Z  M 483.478 560.522 L 514.522 560.522 L 514.522 529.478 L 483.478 529.478 L 483.478 560.522 Z " fill="rgb(63,61,86)"/><rect x="796" y="22" width="28" height="28" transform="matrix(1,0,0,1,0,0)" fill="rgb(159,231,255)"/><path d=" M 841 34 L 807 34 L 807 0 L 841 0 L 841 34 Z  M 808.478 32.522 L 839.522 32.522 L 839.522 1.478 L 808.478 1.478 L 808.478 32.522 Z " fill="rgb(63,61,86)"/><rect x="1078" y="550" width="28" height="28" transform="matrix(1,0,0,1,0,0)" fill="rgb(159,231,255)"/><path d=" M 1123 562 L 1089 562 L 1089 528 L 1123 528 L 1123 562 Z  M 1090.478 560.522 L 1121.522 560.522 L 1121.522 529.478 L 1090.478 529.478 L 1090.478 560.522 Z " fill="rgb(63,61,86)"/><path d=" M 1057.171 231.958 L 1054.793 231.958 L 1054.793 166.797 C 1054.793 156.794 1050.819 147.202 1043.747 140.129 C 1036.674 133.056 1027.081 129.083 1017.079 129.083 L 879.025 129.083 C 869.023 129.083 859.43 133.056 852.358 140.129 C 845.285 147.202 841.312 156.794 841.312 166.797 L 841.312 524.278 C 841.312 534.28 845.285 543.873 852.358 550.946 C 859.43 558.018 869.023 561.992 879.025 561.992 L 1017.079 561.992 C 1027.081 561.992 1036.674 558.018 1043.747 550.946 C 1050.819 543.873 1054.793 534.28 1054.793 524.278 L 1054.793 278.341 L 1057.171 278.341 L 1057.171 231.958 Z " fill="rgb(63,61,86)"/><path d=" M 1046.761 169.013 L 1046.761 525.973 C 1046.764 541.528 1034.156 554.14 1018.601 554.143 L 879.881 554.143 C 864.326 554.14 851.719 541.528 851.721 525.973 L 851.721 169.013 C 851.723 153.462 864.33 140.855 879.881 140.853 L 896.711 140.853 C 895.03 144.979 895.512 149.671 897.997 153.369 C 900.483 157.066 904.646 159.283 909.101 159.283 L 988.191 159.283 C 992.647 159.284 996.81 157.066 999.296 153.369 C 1001.781 149.671 1002.263 144.979 1000.581 140.853 L 1018.601 140.853 C 1034.153 140.855 1046.76 153.462 1046.761 169.013 Z " fill="rgb(255,255,255)"/><rect x="928.58" y="376.218" width="41.324" height="12.246" transform="matrix(1,0,0,1,0,0)" fill="rgb(159,231,255)"/><rect x="878.621" y="280.875" width="141.24" height="5.248" transform="matrix(1,0,0,1,0,0)" fill="rgb(63,61,86)"/><rect x="878.621" y="297.494" width="141.24" height="5.248" transform="matrix(1,0,0,1,0,0)" fill="rgb(63,61,86)"/><rect x="878.621" y="314.114" width="141.24" height="5.248" transform="matrix(1,0,0,1,0,0)" fill="rgb(63,61,86)"/><rect x="878.621" y="330.733" width="141.24" height="5.248" transform="matrix(1,0,0,1,0,0)" fill="rgb(63,61,86)"/><rect x="878.621" y="347.352" width="141.24" height="5.248" transform="matrix(1,0,0,1,0,0)" fill="rgb(63,61,86)"/><rect x="929.684" y="211.179" width="24.492" height="24.492" transform="matrix(1,0,0,1,0,0)" fill="rgb(242,242,242)"/><path d=" M 939.059 217.303 L 939.059 247.043 L 968.799 247.043 L 968.799 217.303 L 939.059 217.303 Z  M 967.509 245.753 L 940.349 245.753 L 940.349 218.593 L 967.509 218.593 L 967.509 245.753 Z " fill="rgb(63,61,86)"/><g opacity="0.11"><path d=" M 1046.761 487.853 L 1046.761 525.973 C 1046.764 541.528 1034.156 554.14 1018.601 554.143 L 879.881 554.143 C 864.326 554.14 851.719 541.528 851.721 525.973 L 851.721 333.763 L 968.591 426.093 L 970.591 427.673 L 992.331 444.843 L 994.361 446.453 L 1046.761 487.853 Z " fill="rgb(159,231,255)"/></g><circle vector-effect="non-scaling-stroke" cx="937.24147" cy="498.70691" r="43.867830000000026" fill="rgb(242,242,242)"/><path d=" M 320.171 654.543 C 272.123 654.543 233.171 615.592 233.171 567.543 C 233.171 519.494 272.123 480.543 320.171 480.543 C 368.22 480.543 407.171 519.494 407.171 567.543 C 407.117 615.569 368.198 654.489 320.171 654.543 L 320.171 654.543 Z  M 320.171 482.543 C 273.227 482.543 235.171 520.599 235.171 567.543 C 235.171 614.487 273.227 652.543 320.171 652.543 C 367.116 652.543 405.171 614.487 405.171 567.543 C 405.118 520.621 367.094 482.596 320.171 482.543 L 320.171 482.543 Z " fill="rgb(174,169,230)"/><path d=" M 950.171 532.543 C 919.796 532.543 895.171 507.919 895.171 477.543 C 895.171 447.168 919.796 422.543 950.171 422.543 C 980.547 422.543 1005.171 447.168 1005.171 477.543 C 1005.137 507.905 980.533 532.509 950.171 532.543 L 950.171 532.543 Z  M 950.171 424.543 C 920.9 424.543 897.171 448.272 897.171 477.543 C 897.171 506.814 920.9 530.543 950.171 530.543 C 979.442 530.543 1003.171 506.814 1003.171 477.543 C 1003.139 448.286 979.429 424.576 950.171 424.543 L 950.171 424.543 Z " fill="rgb(63,61,86)"/><defs><mask id="_mask_KdzwvB5PXSAvCL8k0Hb5jHyfO3LYf0uU"><path d="M 118.648 234.02 L 207.694 234.02 L 207.694 323.066 L 118.648 323.066 L 118.648 234.02 Z" style="stroke:black;fill:white;stroke-miterlimit:10;"/></mask><mask id="_mask_YU4HXQOFCluvUQVrXM9bdah0dTYFjfSL"><path d="M 118.648 234.02 L 207.694 234.02 L 207.694 323.066 L 118.648 323.066 L 118.648 234.02 Z" style="stroke:black;fill:white;stroke-miterlimit:10;"/></mask></defs><g mask="url(#_mask_YU4HXQOFCluvUQVrXM9bdah0dTYFjfSL)"><g mask="url(#_mask_KdzwvB5PXSAvCL8k0Hb5jHyfO3LYf0uU)"/></g><g mask="url(#_mask_KdzwvB5PXSAvCL8k0Hb5jHyfO3LYf0uU)"><use xlink:href="#img_6d6n8hUptoTalgVLqOuvG2QLhfidUG97" transform="matrix(0.182,0,0,0.182,118.461,234.215)" preserveAspectRatio="none" style=""/></g><defs><mask id="_mask_hVpvpzMtRVgBDpeuZ4fuKK4nMwBXV0Qh"><path d="M 918.131 445.503 L 982.212 445.503 L 982.212 509.584 L 918.131 509.584 L 918.131 445.503 Z" style="stroke:black;fill:white;stroke-miterlimit:10;"/></mask><mask id="_mask_nHJu4pjGqobg6ItjHT7HXDndPrwJlgWg"><path d="M 918.131 445.503 L 982.212 445.503 L 982.212 509.584 L 918.131 509.584 L 918.131 445.503 Z" style="stroke:black;fill:white;stroke-miterlimit:10;"/></mask></defs><g mask="url(#_mask_nHJu4pjGqobg6ItjHT7HXDndPrwJlgWg)"><g mask="url(#_mask_hVpvpzMtRVgBDpeuZ4fuKK4nMwBXV0Qh)"/></g><g mask="url(#_mask_hVpvpzMtRVgBDpeuZ4fuKK4nMwBXV0Qh)"><use xlink:href="#img_6d6n8hUptoTalgVLqOuvG2QLhfidUG97" transform="matrix(0.131,0,0,0.131,917.996,445.643)" preserveAspectRatio="none" style=""/></g><g clip-path="url(#_clipPath_j9JQZcUFrP4wISap3y3QfHe2KmurSZ9R)"><text transform="matrix(1,0,0,1,436.091,130.327)" style="font-family:'Nova Round';font-weight:400;font-size:20px;font-style:normal;fill:#000000;stroke:none;">BKPPD Balangan</text></g><defs><clipPath id="_clipPath_j9JQZcUFrP4wISap3y3QfHe2KmurSZ9R"><rect x="0" y="0" width="160" height="24.141" transform="matrix(1,0,0,1,436.091,111.128)"/></clipPath></defs><defs><image width="488" height="488" xlink:href="cloud://id=rg9ghydD0" id="img_6d6n8hUptoTalgVLqOuvG2QLhfidUG97"/></defs></svg>