<svg width="766" height="1063" viewBox="0 0 766 1063" fill="none" xmlns="http://www.w3.org/2000/svg">
<path opacity="0.4" d="M179.4 77.4C155.8 63.8 132.5 56.8 110.8 56.7C89.1 56.6 69.3 63.5 52.6 77C35.9 90.5 22.7 110.2 13.7 135.1C4.7 160 0 189.7 0 222.3L179.3 325.7L179.4 77.4Z" fill="url(#paint0_linear)"/>
<path opacity="0.2" d="M40 187.9C40 237 50.5 291.1 70.2 343.3C89.9 395.5 117.9 443.5 150.6 481.2C183.3 518.9 219.4 544.6 254.2 555.1C289 565.6 320.9 560.4 346 540.1C371.1 519.8 388.1 485.4 395.1 441.3C402 397.1 398.5 345.1 384.9 291.9C371.3 238.7 348.4 186.6 318.9 142.3C289.4 98 254.8 63.4 219.3 43V291.4L40 187.9Z" fill="url(#paint1_linear)"/>
<path opacity="0.5" d="M562.5 390.5C479.8 342.2 411.4 387.4 399.3 491.5C397.2 509.6 410.9 533.4 427.5 543.1L697.4 700.7C714 710.4 727.7 702.6 725.7 682.1C713.6 563.8 645.2 438.7 562.5 390.5Z" fill="url(#paint2_linear)"/>
<path opacity="0.5" d="M654.7 255.2C654.7 327.1 613.1 361.1 561.8 331.1C510.6 301.2 469 218.7 469 146.8C469 74.9001 510.6 40.9001 561.9 70.9001C613.2 100.8 654.7 183.4 654.7 255.2Z" fill="url(#paint3_linear)"/>
<path opacity="0.07" d="M602.5 360.366C519.8 312.066 451.4 357.266 439.3 461.366C437.2 479.466 450.9 503.266 467.5 512.966L737.4 670.566C754 680.266 767.7 672.466 765.7 651.966C753.6 533.666 685.2 408.566 602.5 360.366Z" fill="url(#paint4_linear)"/>
<path opacity="0.07" d="M694.7 225.2C694.7 297.1 653.1 331.1 601.8 301.1C550.6 271.2 509 188.7 509 116.8C509 44.9001 550.6 10.9001 601.9 40.9001C653.2 70.8001 694.7 153.4 694.7 225.2Z" fill="url(#paint5_linear)"/>
<path opacity="0.2" d="M220.3 427.2L34.0996 319.7V416.7L220.4 524.2L220.3 427.2Z" fill="url(#paint6_linear)"/>
<path d="M71.9002 374.1C71.9002 382.1 67.2002 385.8 61.3002 382.5C55.5002 379.1 50.7002 369.9 50.7002 361.9C50.7002 353.9 55.4002 350.2 61.3002 353.5C67.2002 356.9 71.9002 366.1 71.9002 374.1Z" fill="#F2994A"/>
<path opacity="0.15" d="M81.5 371.1L142.4 406.2V419.8L81.5 384.7V371.1Z" fill="white"/>
<path opacity="0.15" d="M81.7998 398.5L201.1 467.4V481L81.7998 412.1V398.5Z" fill="white"/>
<path opacity="0.05" d="M514.3 525L701.4 633V1035.9L514.3 928V525Z" fill="url(#paint7_linear)"/>
<path opacity="0.3" d="M670.2 660L483 552V954.9L670.1 1062.9L670.2 660ZM544 613L606.5 649V665L544 629.5V613Z" fill="url(#paint8_linear)"/>
<path opacity="0.15" d="M501.1 807.3L651.4 894V907.6L501.1 820.9V807.3Z" fill="white"/>
<path opacity="0.15" d="M511.7 839.9L641 914.5V928.1L511.7 853.5V839.9Z" fill="white"/>
<path d="M618.4 773.4C618.4 741.5 599.7 704.8 576.7 691.5C553.7 678.2 535 693.3 535 725.2C535 757.1 553.7 793.8 576.7 807.1C599.7 820.4 618.4 805.3 618.4 773.4Z" fill="#F2994A"/>
<path opacity="0.05" d="M281.3 200.7L468.4 308.7V711.6L281.3 603.6V200.7Z" fill="url(#paint9_linear)"/>
<path opacity="0.3" d="M424.2 336L237 228V630.9L424.1 738.9L424.2 336ZM298 289L360.5 325V341L298 305.5V289Z" fill="url(#paint10_linear)"/>
<path opacity="0.15" d="M268.1 482.9L418.4 569.6V583.2L268.1 496.5V482.9Z" fill="white"/>
<path opacity="0.15" d="M278.6 515.6L407.8 590.2V603.8L278.5 529.2L278.6 515.6Z" fill="white"/>
<path d="M385.4 449.1C385.4 417.2 366.7 380.5 343.7 367.2C320.7 353.9 302 369 302 400.9C302 432.8 320.7 469.5 343.7 482.8C366.7 496.1 385.4 481 385.4 449.1Z" fill="#F2C94C"/>
<path opacity="0.3" d="M385.4 673.8L87.7998 502L87.8998 657.1L359.2 813.7L385.5 852.6L385.4 673.8Z" fill="url(#paint11_linear)"/>
<path d="M56.0996 562.5V520.4L168.4 585.2V627.3L56.0996 562.5Z" fill="#F2994A"/>
<path opacity="0.15" d="M308.9 667.4L243.7 629.8V643.4L308.9 681V667.4Z" fill="white"/>
<path opacity="0.15" d="M308.9 694.7L183.2 622.2V635.8L308.9 708.3V694.7Z" fill="white"/>
<path opacity="0.15" d="M308.9 721.9L156.7 634V647.6L309 735.5L308.9 721.9Z" fill="white"/>
<path d="M325 690.9C325 703.7 332.6 718.4 341.9 723.8C351.2 729.2 358.8 723.2 358.8 710.4C358.8 697.6 351.2 682.9 341.9 677.5C332.5 672.1 324.9 678.1 325 690.9Z" fill="#F2994A"/>
<path opacity="0.07" d="M434.5 372.546C434.5 509.746 354.2 574.546 255.2 517.446C156.2 460.346 76 302.746 76 165.646C76 28.4461 156.3 -36.3539 255.3 20.7461C354.3 77.8461 434.5 235.346 434.5 372.546Z" fill="url(#paint12_linear)"/>
<defs>
<linearGradient id="paint0_linear" x1="255.593" y1="134.132" x2="54.752" y2="228.705" gradientUnits="userSpaceOnUse">
<stop stop-color="white"/>
<stop offset="1" stop-color="white" stop-opacity="0"/>
</linearGradient>
<linearGradient id="paint1_linear" x1="349.205" y1="203.291" x2="202.279" y2="354.992" gradientUnits="userSpaceOnUse">
<stop stop-color="white"/>
<stop offset="1" stop-color="white" stop-opacity="0"/>
</linearGradient>
<linearGradient id="paint2_linear" x1="903.736" y1="311.718" x2="567.813" y2="556.764" gradientUnits="userSpaceOnUse">
<stop stop-color="white"/>
<stop offset="1" stop-color="white" stop-opacity="0"/>
</linearGradient>
<linearGradient id="paint3_linear" x1="732.545" y1="76.4989" x2="396.622" y2="321.545" gradientUnits="userSpaceOnUse">
<stop stop-color="white"/>
<stop offset="1" stop-color="white" stop-opacity="0"/>
</linearGradient>
<linearGradient id="paint4_linear" x1="943.737" y1="281.584" x2="607.814" y2="526.63" gradientUnits="userSpaceOnUse">
<stop stop-color="white"/>
<stop offset="1" stop-color="white" stop-opacity="0"/>
</linearGradient>
<linearGradient id="paint5_linear" x1="772.545" y1="46.499" x2="436.622" y2="291.545" gradientUnits="userSpaceOnUse">
<stop stop-color="white"/>
<stop offset="1" stop-color="white" stop-opacity="0"/>
</linearGradient>
<linearGradient id="paint6_linear" x1="148.215" y1="385.592" x2="106.204" y2="458.377" gradientUnits="userSpaceOnUse">
<stop stop-color="white"/>
<stop offset="1" stop-color="white" stop-opacity="0"/>
</linearGradient>
<linearGradient id="paint7_linear" x1="716.522" y1="592.289" x2="484.803" y2="993.743" gradientUnits="userSpaceOnUse">
<stop stop-color="white"/>
<stop offset="1" stop-color="white" stop-opacity="0"/>
</linearGradient>
<linearGradient id="paint8_linear" x1="685.227" y1="619.239" x2="453.508" y2="1020.69" gradientUnits="userSpaceOnUse">
<stop stop-color="white"/>
<stop offset="1" stop-color="white" stop-opacity="0"/>
</linearGradient>
<linearGradient id="paint9_linear" x1="483.515" y1="267.97" x2="251.796" y2="669.424" gradientUnits="userSpaceOnUse">
<stop stop-color="white"/>
<stop offset="1" stop-color="white" stop-opacity="0"/>
</linearGradient>
<linearGradient id="paint10_linear" x1="439.226" y1="295.238" x2="207.507" y2="696.692" gradientUnits="userSpaceOnUse">
<stop stop-color="white"/>
<stop offset="1" stop-color="white" stop-opacity="0"/>
</linearGradient>
<linearGradient id="paint11_linear" x1="320.501" y1="611.684" x2="166.851" y2="731.988" gradientUnits="userSpaceOnUse">
<stop stop-color="white"/>
<stop offset="1" stop-color="white" stop-opacity="0"/>
</linearGradient>
<linearGradient id="paint12_linear" x1="470.527" y1="162.29" x2="138.592" y2="326.952" gradientUnits="userSpaceOnUse">
<stop stop-color="white"/>
<stop offset="1" stop-color="white" stop-opacity="0"/>
</linearGradient>
</defs>
</svg>
