<svg width="682" height="429" viewBox="0 0 682 429" fill="none" xmlns="http://www.w3.org/2000/svg">
<path d="M621.908 305.335V249.549C621.908 247.027 620.03 244.9 617.527 244.588L555.664 236.876C552.566 236.49 549.876 239.005 550.053 242.121L552.999 293.887C553.126 296.107 554.703 297.977 556.87 298.475L609.058 310.483C609.492 310.583 609.938 310.625 610.384 310.606L617.113 310.33C619.793 310.221 621.908 308.016 621.908 305.335Z" fill="#E8EBF2"/>
<path fill-rule="evenodd" clip-rule="evenodd" d="M594.791 241.753C595.882 243.032 608.008 253.384 614.212 258.633L621.908 257.167V249.549C621.908 247.026 620.029 244.899 617.526 244.587L594.791 241.753Z" fill="#D2DBEE"/>
<path d="M614.443 305.711V248.517C614.443 246 612.573 243.876 610.077 243.557L549.903 235.875C546.914 235.494 544.27 237.822 544.27 240.835V291.307C544.27 293.62 545.856 295.632 548.106 296.17L608.279 310.573C611.423 311.326 614.443 308.943 614.443 305.711Z" fill="#EFF2FA"/>
<path fill-rule="evenodd" clip-rule="evenodd" d="M544.27 240.791L544.528 239.241C545.263 237.051 547.469 235.564 549.903 235.875L610.076 243.557C612.573 243.875 614.443 246 614.443 248.516V258.763L544.27 247.306V240.835C544.27 240.82 544.27 240.806 544.27 240.791Z" fill="#DEE5F5"/>
<path d="M553.713 256.134L559.213 257.634V288.134L553.713 287.134V256.134Z" fill="#DEE5F5"/>
<path d="M564.713 256.134L570.713 257.134V290.634L564.713 289.134V256.134Z" fill="#DEE5F5"/>
<path d="M575.713 262.134L581.213 263.634V293.134L575.713 291.634V262.134Z" fill="#DEE5F5"/>
<path d="M585.713 271.134L591.713 272.306V295.634L585.713 294.134V271.134Z" fill="#DEE5F5"/>
<path d="M597.713 282.134L603.713 283.837V298.634L597.713 297.134V282.134Z" fill="#DEE5F5"/>
<path fill-rule="evenodd" clip-rule="evenodd" d="M559.213 264.399L553.713 263.104V287.134L559.213 288.134V264.399ZM570.713 260.434L564.713 259.234V289.134L570.713 290.634V260.434ZM581.213 280.027V293.134L575.713 291.634V278.848L581.213 280.027ZM591.713 274.946L585.713 273.821V294.134L591.713 295.634V274.946ZM603.713 285.281V298.634L597.713 297.134V283.869L603.713 285.281Z" fill="#3D58FF"/>
<path d="M641 355.229V339.849C641 337.58 639.473 335.596 637.279 335.015L608.444 327.382C607.502 327.133 606.508 327.164 605.583 327.472L601.155 328.948C600.207 329.264 599.638 330.232 599.822 331.215L603.378 350.141C603.711 351.908 604.966 353.361 606.667 353.946L630.746 362.225C632.172 362.715 633.743 362.536 635.021 361.737L638.65 359.469C640.112 358.555 641 356.953 641 355.229Z" fill="#E8EBF2"/>
<path fill-rule="evenodd" clip-rule="evenodd" d="M639.601 336.38L634 337.5L636.5 347.5L641 346.273V339.849C641 338.52 640.476 337.289 639.601 336.38Z" fill="#C6D2EB"/>
<path fill-rule="evenodd" clip-rule="evenodd" d="M640.142 337.049C639.482 336.073 638.481 335.333 637.279 335.015L608.443 327.382C607.501 327.133 606.507 327.164 605.583 327.472L601.75 328.75L600.579 329.252C600.457 329.344 600.348 329.449 600.252 329.564L635.5 338.5L640.142 337.049Z" fill="#D1DAEF"/>
<path d="M636.566 357.969V341.464C636.566 339.178 635.016 337.183 632.801 336.619L603.235 329.088C600.074 328.283 597 330.671 597 333.933V346.812C597 348.892 598.289 350.755 600.235 351.49L629.801 362.647C633.071 363.881 636.566 361.464 636.566 357.969Z" fill="#EFF2FA"/>
<path fill-rule="evenodd" clip-rule="evenodd" d="M636.566 347.563L597 335.5L597 335.5V333.933C597 330.671 600.073 328.283 603.234 329.088L632.8 336.619C635.015 337.183 636.566 339.178 636.566 341.464V347.563Z" fill="#DEE5F5"/>
<path d="M681.631 230.048V130.59C681.631 127.593 679.012 125.27 676.036 125.626L626.314 131.579C623.801 131.88 621.909 134.012 621.909 136.543V224.864C621.909 227.425 623.843 229.572 626.39 229.837L676.112 235.021C679.063 235.328 681.631 233.014 681.631 230.048Z" fill="#E8EBF2"/>
<path fill-rule="evenodd" clip-rule="evenodd" d="M681.631 140.398L674.213 141.634L662.189 127.284L676.036 125.626C679.012 125.27 681.631 127.593 681.631 130.591V140.398Z" fill="#D2DBEE"/>
<path d="M674.166 229.986V131.419C674.166 128.424 671.551 126.101 668.576 126.454L618.854 132.358C616.338 132.657 614.444 134.79 614.444 137.323V224.845C614.444 227.407 616.381 229.555 618.93 229.818L668.652 234.959C671.601 235.264 674.166 232.951 674.166 229.986Z" fill="#EFF2FA"/>
<path fill-rule="evenodd" clip-rule="evenodd" d="M674.166 141.473L614.443 145.12V137.324C614.443 134.791 616.338 132.658 618.854 132.359L668.576 126.455C671.55 126.101 674.166 128.424 674.166 131.42V141.473Z" fill="#DEE5F5"/>
<path d="M627 171.094C630 169.261 637.6 166.194 640 176.594C643 189.594 647.5 191.094 650.5 188.594C653.5 186.094 656.5 173.594 667 173.594" stroke="#F65D6D" stroke-width="1.5" stroke-linecap="round" stroke-linejoin="round"/>
<path d="M626 156.594C629.5 154.427 635.1 158.594 637.5 162.594C640.5 167.594 642.5 171.094 646 171.094C653.5 171.094 657 172.594 656.5 177.594C656 182.594 654.5 188.094 658 188.094C661.5 188.094 659.5 184.594 664.5 184.094H667" stroke="#EC9216" stroke-width="1.5" stroke-linecap="round" stroke-linejoin="round"/>
<path d="M626.5 182.593C629.333 185.427 631.232 184.862 633 183.094C635 181.094 634 176.594 638 174.594C642 172.594 643.442 173.664 645.5 177.094C647 179.594 653 182.593 654.5 177.593C656 172.593 653 155.593 667 157.593" stroke="#48C5A1" stroke-width="1.5" stroke-linecap="round" stroke-linejoin="round"/>
<path d="M625 152V194.5L665 196" stroke="#D2DBEE" stroke-width="2" stroke-linecap="round" stroke-linejoin="round"/>
<path d="M619 190H621.5M619 181.5H621.5M619 173.5H621.5M619 165H621.5M619 156H621.5" stroke="#B4C0DB" stroke-linecap="round"/>
<path d="M628 198.777L632.5 199M638 199.344L642.519 199.455M648 199.455L652.5 199.744M658 199.744L663.036 200" stroke="#B4C0DB" stroke-linecap="round"/>
<g filter="url(#filter0_d)">
<path d="M620 207.129C620 205.975 620.973 205.061 622.125 205.133L666.125 207.883C667.179 207.949 668 208.823 668 209.879V222.826C668 223.996 667 224.917 665.834 224.819L621.834 221.153C620.797 221.066 620 220.2 620 219.16V207.129Z" fill="#3D58FF"/>
</g>
<ellipse cx="628" cy="213.5" rx="4" ry="4.5" fill="white"/>
<path d="M637.5 211.5L662.5 213M637.5 216.5L653 217.5" stroke="white" stroke-width="2" stroke-linecap="round"/>
<path d="M601.879 221.625V138.869C601.879 135.872 599.261 133.548 596.285 133.904L533.872 141.364C531.358 141.665 529.466 143.797 529.466 146.329V213.516C529.466 216.029 531.33 218.151 533.822 218.475L596.235 226.584C599.227 226.972 601.879 224.643 601.879 221.625Z" fill="#E8EBF2"/>
<path fill-rule="evenodd" clip-rule="evenodd" d="M601.878 148.778L591.613 149.634L572.113 137.634C573.6 137.229 575.495 136.706 577.477 136.152L596.285 133.904C599.261 133.549 601.878 135.872 601.878 138.869V148.778Z" fill="#D2DBEE"/>
<path d="M594.414 221.632V139.63C594.414 136.635 591.799 134.312 588.825 134.665L526.412 142.064C523.896 142.362 522.001 144.496 522.001 147.029V213.589C522.001 216.104 523.868 218.227 526.362 218.548L588.775 226.591C591.765 226.977 594.414 224.647 594.414 221.632Z" fill="#EFF2FA"/>
<path fill-rule="evenodd" clip-rule="evenodd" d="M594.413 149.408L522.113 154.134L522 153.567V147.029C522 144.495 523.895 142.362 526.411 142.064L588.825 134.664C591.798 134.312 594.413 136.635 594.413 139.63V149.408Z" fill="#DEE5F5"/>
<g filter="url(#filter1_d)">
<path d="M561.509 159.295C561.575 158.764 561.212 158.272 560.68 158.216C557.374 157.868 554.045 158.628 551.085 160.419C547.841 162.38 545.202 165.481 543.538 169.287C541.874 173.093 541.267 177.413 541.803 181.643C542.339 185.873 543.99 189.801 546.527 192.876C549.063 195.952 552.356 198.022 555.946 198.795C559.537 199.569 563.243 199.008 566.548 197.192C569.853 195.375 572.589 192.393 574.376 188.664C576.036 185.196 576.798 181.244 576.576 177.289C576.548 176.799 576.105 176.446 575.618 176.508C575.154 176.568 574.823 176.984 574.849 177.451C575.043 181.005 574.357 184.555 572.865 187.671C571.256 191.031 568.79 193.718 565.812 195.355C562.835 196.992 559.495 197.497 556.26 196.8C553.025 196.102 550.057 194.238 547.772 191.467C545.487 188.695 543.999 185.156 543.516 181.345C543.033 177.534 543.58 173.642 545.08 170.212C546.579 166.783 548.957 163.989 551.879 162.222C554.492 160.641 557.423 159.952 560.341 160.219C560.908 160.271 561.436 159.882 561.507 159.316L561.509 159.295Z" fill="#3D58FF"/>
<path d="M561.509 159.295C561.575 158.764 561.212 158.272 560.68 158.216C557.374 157.868 554.045 158.628 551.085 160.419C547.841 162.38 545.202 165.481 543.538 169.287C541.874 173.093 541.267 177.413 541.803 181.643C542.339 185.873 543.99 189.801 546.527 192.876C549.063 195.952 552.356 198.022 555.946 198.795C559.537 199.569 563.243 199.008 566.548 197.192C569.853 195.375 572.589 192.393 574.376 188.664C576.036 185.196 576.798 181.244 576.576 177.289C576.548 176.799 576.105 176.446 575.618 176.508C575.154 176.568 574.823 176.984 574.849 177.451C575.043 181.005 574.357 184.555 572.865 187.671C571.256 191.031 568.79 193.718 565.812 195.355C562.835 196.992 559.495 197.497 556.26 196.8C553.025 196.102 550.057 194.238 547.772 191.467C545.487 188.695 543.999 185.156 543.516 181.345C543.033 177.534 543.58 173.642 545.08 170.212C546.579 166.783 548.957 163.989 551.879 162.222C554.492 160.641 557.423 159.952 560.341 160.219C560.908 160.271 561.436 159.882 561.507 159.316L561.509 159.295Z" fill="url(#paint0_linear)"/>
</g>
<ellipse cx="559.232" cy="178.418" rx="12.0326" ry="14.937" fill="#DEE5F5"/>
<ellipse cx="559.43" cy="175.725" rx="3.55061" ry="4.40765" fill="#3D58FF"/>
<path d="M550.443 188.621C551.696 184.827 555.246 182.091 559.429 182.091C563.476 182.091 566.931 184.653 568.285 188.257C566.08 191.382 562.841 193.355 559.231 193.355C555.764 193.355 552.639 191.534 550.443 188.621Z" fill="#3D58FF"/>
<path d="M547.613 207.134L571.113 209.134M552.113 213.134L566.613 214.634" stroke="#CDDCFF" stroke-width="2" stroke-linecap="round"/>
<path d="M643.923 106.053L643.723 7.74033C643.717 5.13744 641.716 2.97401 639.122 2.76644L632.334 2.22345C631.596 2.16441 630.854 2.26999 630.162 2.53256L552.723 31.9072C550.78 32.644 549.496 34.5049 549.496 36.5822V120.53C549.496 123.629 552.286 125.982 555.34 125.459L639.768 110.992C642.172 110.58 643.928 108.493 643.923 106.053Z" fill="#E8EBF2"/>
<path fill-rule="evenodd" clip-rule="evenodd" d="M643.737 14.1333H636.215L631.215 9.63329L629.119 2.92812L630.163 2.53207C630.855 2.2695 631.597 2.16392 632.335 2.22296L639.123 2.76594C641.717 2.97351 643.719 5.13695 643.724 7.73983L643.737 14.1333Z" fill="#D2DBEE"/>
<path d="M636.467 107.011V7.16505C636.467 3.68784 633.005 1.27237 629.742 2.47207L545.306 33.5097C543.339 34.2329 542.031 36.1066 542.031 38.2027V121.361C542.031 124.458 544.816 126.81 547.869 126.291L632.305 111.94C634.708 111.532 636.467 109.449 636.467 107.011Z" fill="#EFF2FA"/>
<path fill-rule="evenodd" clip-rule="evenodd" d="M636.467 14.2452L542.031 46.0275V38.2022C542.031 36.1061 543.339 34.2324 545.306 33.5092L629.742 2.47158C633.006 1.27188 636.467 3.68735 636.467 7.16456V14.2452Z" fill="#DEE5F5"/>
<g filter="url(#filter2_d)">
<path d="M548.715 53.7662C548.715 51.6002 550.109 49.6805 552.169 49.0111L622.169 26.2611C625.4 25.2111 628.715 27.6192 628.715 31.0162V59.2061C628.715 61.5115 627.139 63.518 624.899 64.0639L554.899 81.1264C551.75 81.8939 548.715 79.5094 548.715 76.2686V53.7662Z" fill="white"/>
</g>
<ellipse cx="562.215" cy="61.5569" rx="9.5" ry="12.4231" fill="#DEE5F5"/>
<ellipse cx="562.372" cy="59.3166" rx="2.80328" ry="3.66583" fill="#3D58FF"/>
<path d="M555.277 70.0424C556.267 66.8867 559.069 64.6113 562.371 64.6113C565.567 64.6113 568.294 66.742 569.364 69.7392C567.623 72.3383 565.066 73.9795 562.216 73.9795C559.478 73.9795 557.011 72.4653 555.277 70.0424Z" fill="#3D58FF"/>
<ellipse cx="566.552" cy="98.9618" rx="8.83732" ry="11.5565" fill="#DEE5F5"/>
<ellipse cx="566.698" cy="96.8774" rx="2.60773" ry="3.41011" fill="#3D58FF"/>
<path d="M560.098 106.855C561.018 103.92 563.625 101.803 566.697 101.803C569.67 101.803 572.207 103.785 573.201 106.573C571.582 108.991 569.203 110.518 566.552 110.518C564.005 110.518 561.71 109.109 560.098 106.855Z" fill="#3D58FF"/>
<path d="M584.285 47.5878C584.222 47.4446 584.095 47.3556 583.962 47.3611L582.148 47.4366L581.146 45.5728C581.072 45.4359 580.939 45.3604 580.807 45.3802C580.675 45.4001 580.571 45.5113 580.541 45.6639L580.132 47.74L578.375 48.2021C578.246 48.2362 578.152 48.3586 578.133 48.5139C578.115 48.6693 578.177 48.8275 578.292 48.9161L579.854 50.1242L579.77 52.2742C579.764 52.4322 579.838 52.5836 579.959 52.6597C580.024 52.7009 580.095 52.7156 580.163 52.7054C580.221 52.6966 580.277 52.6694 580.323 52.6244L581.697 51.2949L583.402 52.161C583.527 52.2244 583.668 52.1957 583.761 52.0875C583.854 51.9792 583.88 51.8128 583.827 51.6635L583.115 49.6333L584.252 48.0189C584.335 47.9005 584.348 47.7314 584.285 47.5878Z" fill="#FEAF45"/>
<path d="M593.258 44.8036C593.195 44.6604 593.068 44.5714 592.935 44.577L591.12 44.6524L590.118 42.7887C590.044 42.6518 589.912 42.5762 589.78 42.596C589.648 42.6159 589.543 42.7272 589.513 42.8797L589.104 44.9559L587.348 45.4179C587.219 45.452 587.124 45.5745 587.106 45.7297C587.087 45.8852 587.15 46.0433 587.264 46.132L588.826 47.3401L588.743 49.49C588.737 49.6481 588.811 49.7994 588.932 49.8755C588.997 49.9167 589.068 49.9314 589.136 49.9212C589.194 49.9124 589.249 49.8852 589.296 49.8402L590.67 48.5107L592.375 49.3768C592.5 49.4403 592.64 49.4115 592.733 49.3033C592.826 49.195 592.852 49.0286 592.8 48.8793L592.088 46.8491L593.225 45.2347C593.308 45.1163 593.321 44.9472 593.258 44.8036Z" fill="#FEAF45"/>
<path d="M602.231 41.9403C602.167 41.7971 602.04 41.7081 601.907 41.7137L600.093 41.7891L599.091 39.9254C599.017 39.7885 598.884 39.7129 598.752 39.7328C598.62 39.7526 598.516 39.8639 598.486 40.0164L598.077 42.0926L596.321 42.5547C596.192 42.5888 596.097 42.7112 596.078 42.8664C596.06 43.0219 596.122 43.18 596.237 43.2687L597.799 44.4768L597.716 46.6267C597.71 46.7848 597.784 46.9362 597.904 47.0122C597.969 47.0534 598.041 47.0681 598.108 47.0579C598.167 47.0491 598.222 47.0219 598.269 46.9769L599.643 45.6475L601.347 46.5135C601.472 46.577 601.613 46.5482 601.706 46.44C601.799 46.3317 601.825 46.1653 601.773 46.016L601.06 43.9859L602.197 42.3715C602.281 42.253 602.294 42.0839 602.231 41.9403Z" fill="#FEAF45"/>
<path d="M611.201 39.3788C611.138 39.2356 611.011 39.1466 610.878 39.1522L609.064 39.2276L608.062 37.3638C607.988 37.227 607.855 37.1514 607.723 37.1712C607.591 37.1911 607.487 37.3024 607.457 37.4549L607.048 39.5311L605.291 39.9931C605.162 40.0272 605.068 40.1497 605.049 40.3049C605.031 40.4604 605.093 40.6185 605.208 40.7072L606.77 41.9152L606.686 44.0652C606.68 44.2233 606.754 44.3746 606.875 44.4507C606.94 44.4919 607.011 44.5066 607.079 44.4964C607.137 44.4876 607.193 44.4604 607.239 44.4154L608.613 43.0859L610.318 43.952C610.443 44.0155 610.584 43.9867 610.677 43.8785C610.77 43.7702 610.796 43.6038 610.743 43.4545L610.031 41.4243L611.168 39.8099C611.251 39.6915 611.264 39.5224 611.201 39.3788Z" fill="#FEAF45"/>
<path d="M620.104 36.6822C620.035 36.5398 619.893 36.453 619.743 36.4612L617.689 36.5727L616.592 34.7231C616.512 34.5873 616.363 34.5141 616.214 34.5366C616.064 34.5591 615.944 34.6728 615.907 34.8264L615.403 36.9168L613.407 37.4148C613.261 37.4516 613.151 37.5762 613.127 37.7323C613.104 37.8886 613.171 38.046 613.299 38.1326L615.042 39.3135L614.905 41.4715C614.895 41.6301 614.976 41.7805 615.111 41.8544C615.184 41.8944 615.264 41.9078 615.341 41.8962C615.407 41.8863 615.47 41.8579 615.523 41.8118L617.104 40.4513L619.014 41.2863C619.155 41.3475 619.314 41.3159 619.422 41.2055C619.529 41.0951 619.562 40.9277 619.506 40.779L618.74 38.7568L620.058 37.1152C620.154 36.9948 620.172 36.8249 620.104 36.6822Z" fill="#FEAF45"/>
<path d="M589.388 87.0394C589.342 86.9011 589.233 86.8074 589.109 86.8008L587.422 86.7094L586.66 84.8945C586.604 84.7612 586.488 84.6794 586.364 84.6861C586.24 84.6927 586.133 84.7865 586.092 84.925L585.529 86.8112L583.861 87.083C583.739 87.1031 583.64 87.2081 583.609 87.3501C583.578 87.4925 583.622 87.6445 583.72 87.7367L585.059 88.9942L584.791 90.9777C584.771 91.1235 584.826 91.2702 584.932 91.3514C584.988 91.3953 585.053 91.4152 585.116 91.4118C585.171 91.4089 585.225 91.3886 585.272 91.3511L586.663 90.2421L588.164 91.1956C588.274 91.2654 588.407 91.2513 588.503 91.1594C588.598 91.0674 588.637 90.9156 588.602 90.7727L588.123 88.8295L589.319 87.4356C589.407 87.3334 589.434 87.1779 589.388 87.0394Z" fill="#FEAF45"/>
<path d="M597.947 85.2579C597.901 85.1197 597.791 85.026 597.668 85.0193L595.981 84.9279L595.219 83.1131C595.162 82.9797 595.046 82.898 594.922 82.9046C594.798 82.9113 594.692 83.005 594.65 83.1436L594.087 85.0298L592.42 85.3016C592.297 85.3217 592.199 85.4266 592.168 85.5687C592.137 85.7111 592.181 85.863 592.279 85.9553L593.618 87.2128L593.35 89.1962C593.33 89.3421 593.385 89.4888 593.49 89.57C593.547 89.6139 593.611 89.6338 593.675 89.6304C593.73 89.6275 593.783 89.6072 593.83 89.5697L595.221 88.4607L596.722 89.4141C596.833 89.484 596.966 89.4699 597.061 89.3779C597.157 89.286 597.196 89.1342 597.161 88.9913L596.681 87.048L597.878 85.6542C597.966 85.5519 597.993 85.3965 597.947 85.2579Z" fill="#FEAF45"/>
<path d="M606.509 83.4047C606.464 83.2665 606.354 83.1728 606.23 83.1661L604.543 83.0747L603.781 81.2598C603.725 81.1265 603.609 81.0448 603.485 81.0514C603.361 81.0581 603.254 81.1518 603.213 81.2904L602.65 83.1766L600.982 83.4483C600.86 83.4685 600.761 83.5734 600.73 83.7155C600.699 83.8579 600.743 84.0098 600.841 84.1021L602.18 85.3596L601.912 87.343C601.893 87.4888 601.948 87.6356 602.053 87.7168C602.109 87.7607 602.174 87.7806 602.237 87.7772C602.292 87.7742 602.346 87.754 602.393 87.7164L603.784 86.6075L605.285 87.5609C605.395 87.6308 605.528 87.6167 605.624 87.5247C605.719 87.4327 605.758 87.2809 605.723 87.1381L605.244 85.1948L606.44 83.801C606.528 83.6987 606.555 83.5433 606.509 83.4047Z" fill="#FEAF45"/>
<path d="M615.043 81.8295C614.997 81.6912 614.887 81.5975 614.763 81.5909L613.077 81.4995L612.314 79.6846C612.258 79.5513 612.142 79.4695 612.018 79.4762C611.894 79.4828 611.787 79.5766 611.746 79.7151L611.183 81.6013L609.515 81.8731C609.393 81.8932 609.294 81.9982 609.263 82.1402C609.233 82.2826 609.276 82.4346 609.375 82.5268L610.714 83.7843L610.445 85.7678C610.426 85.9136 610.481 86.0603 610.586 86.1415C610.642 86.1854 610.707 86.2053 610.771 86.2019C610.825 86.199 610.879 86.1787 610.926 86.1412L612.317 85.0322L613.818 85.9857C613.928 86.0555 614.061 86.0414 614.157 85.9495C614.253 85.8575 614.292 85.7057 614.256 85.5628L613.777 83.6196L614.974 82.2257C615.061 82.1235 615.088 81.968 615.043 81.8295Z" fill="#FEAF45"/>
<path d="M623.526 80.1235C623.475 79.9855 623.351 79.8925 623.211 79.8868L621.3 79.8075L620.448 77.9974C620.386 77.8644 620.255 77.7834 620.114 77.791C619.974 77.7986 619.852 77.8931 619.804 78.032L619.152 79.923L617.26 80.2068C617.121 80.2278 617.009 80.3335 616.972 80.4759C616.937 80.6185 616.985 80.7702 617.096 80.8618L618.604 82.1102L618.286 84.0963C618.263 84.2423 618.324 84.3887 618.443 84.4692C618.507 84.5127 618.58 84.5322 618.652 84.5283C618.714 84.525 618.775 84.5043 618.829 84.4664L620.413 83.3471L622.108 84.2901C622.232 84.3592 622.383 84.3441 622.492 84.2514C622.601 84.1587 622.647 84.0066 622.608 83.8639L622.078 81.9234L623.445 80.5204C623.545 80.4175 623.577 80.2617 623.526 80.1235Z" fill="#D2DBEE"/>
<path d="M580.715 59.1338L618.215 48.1338M581.215 66.1338L608.715 58.1338" stroke="#CDDCFF" stroke-width="2" stroke-linecap="round"/>
<path d="M585.715 97.6338L601.215 94.6338M585.715 105.634L623.715 98.1338" stroke="#CDDCFF" stroke-width="2" stroke-linecap="round"/>
<path d="M535.278 122.823L534.762 52.8771C534.737 49.5209 531.478 47.1418 528.274 48.1405L435.055 77.1966C432.966 77.8477 431.543 79.7818 431.543 81.97V135.778C431.543 138.811 434.221 141.145 437.226 140.731L530.961 127.813C533.449 127.47 535.297 125.335 535.278 122.823Z" fill="#E8EBF2"/>
<path fill-rule="evenodd" clip-rule="evenodd" d="M534.797 54.6298H527.713L431.715 80.4069C432.121 78.8958 433.223 77.6326 434.728 77.0459L520.929 43.4391C521.448 43.2369 521.997 43.1227 522.553 43.1013L529.557 42.8319C532.377 42.7234 534.729 44.97 534.749 47.7928L534.797 54.6298Z" fill="#D2DBEE"/>
<path d="M527.846 123.666V47.8945C527.846 44.4051 524.362 41.9888 521.094 43.2114L427.326 78.2899C425.373 79.0207 424.078 80.8872 424.078 82.9729V136.483C424.078 139.514 426.753 141.848 429.756 141.437L523.523 128.62C526 128.282 527.846 126.166 527.846 123.666Z" fill="#EFF2FA"/>
<path fill-rule="evenodd" clip-rule="evenodd" d="M424.212 87.1344L527.712 54.6344L527.845 53.9457V47.8951C527.845 44.4058 524.362 41.9895 521.094 43.2121L427.326 78.2905C425.373 79.0213 424.078 80.8879 424.078 82.9736V87.2015L424.212 87.1344Z" fill="#DEE5F5"/>
<path d="M430.213 93.7376C430.213 91.5854 431.59 89.6747 433.632 88.9942L444.632 85.3275C447.869 84.2483 451.213 86.6581 451.213 90.0709V102.297C451.213 104.786 449.383 106.895 446.92 107.247L435.92 108.818C432.908 109.249 430.213 106.911 430.213 103.869V93.7376Z" fill="#DEE5F5"/>
<g filter="url(#filter3_d)">
<path d="M430.713 118.271C430.713 115.871 432.419 113.809 434.777 113.36L445.777 111.264C448.858 110.677 451.713 113.04 451.713 116.176V127.297C451.713 129.786 449.883 131.895 447.42 132.247L436.42 133.818C433.408 134.249 430.713 131.911 430.713 128.869V118.271Z" fill="#3D58FF"/>
</g>
<path d="M442 129.5L439 126.5L441.5 125L446 129.5H442Z" fill="#CDD4FF"/>
<path d="M441.5 116L435 122.5L437 124.5L446 116H441.5Z" fill="white"/>
<path d="M438 125.5L441.5 122H446L440 127.5L438 125.5Z" fill="white"/>
<path d="M456.713 87.2376C456.713 85.0854 458.09 83.1747 460.132 82.4942L471.132 78.8275C474.369 77.7483 477.713 80.1581 477.713 83.5709V97.2973C477.713 99.7856 475.883 101.895 473.42 102.247L462.42 103.818C459.408 104.249 456.713 101.911 456.713 98.8687V87.2376Z" fill="#DEE5F5"/>
<path d="M460.584 89.4683C460.028 89.0893 461.095 87.7167 462 87.499C462.81 87.3044 468.564 92.6794 471.856 95.4785L471.96 95.9663L471.241 97.1664L469.893 98.2263C466.972 95.6801 461.288 89.9479 460.584 89.4683Z" fill="#A8BBE4"/>
<path d="M462.502 96.4996C462.06 97.0194 460.546 95.4986 460.502 94.4996C460.463 93.606 466.159 87.2125 469.282 84.2397L469.746 84.2194L471.247 86.6561C468.419 89.2823 463.061 95.842 462.502 96.4996Z" fill="#BDCDF0"/>
<path d="M469.766 84.7189C469.749 84.3193 469.435 84.2329 469.281 84.2397C469.634 83.8239 471.946 84.9571 473.057 85.5758L473.538 96.5652L469.893 98.2263C469.893 98.2263 470.343 97.873 470.335 97.7065L469.766 84.7189Z" fill="#CDDAF6"/>
<path d="M457.213 113.271C457.213 110.871 458.919 108.809 461.277 108.36L472.277 106.264C475.358 105.677 478.213 108.04 478.213 111.176V124.194C478.213 126.727 476.319 128.859 473.804 129.159L462.804 130.468C459.829 130.822 457.213 128.499 457.213 125.503V113.271Z" fill="#DEE5F5"/>
<rect x="463" y="111" width="9" height="5" rx="2.5" fill="#CDDAF6"/>
<path d="M463 118.5C463 117.119 464.119 116 465.5 116H468V121H465.5C464.119 121 463 119.881 463 118.5Z" fill="#BDCDF0"/>
<path d="M473 113.5C473 112.119 471.881 111 470.5 111H468V116H470.5C471.881 116 473 114.881 473 113.5Z" fill="#BDCDF0"/>
<path d="M463 123.5C463 122.119 464.119 121 465.5 121H468V123.727C468 124.982 466.982 126 465.727 126H465.5C464.119 126 463 124.881 463 123.5Z" fill="#A7BBE4"/>
<circle cx="470.5" cy="118.5" r="2.5" fill="#A7BBE4"/>
<path d="M439.672 88.6338C439.513 88.6828 439.376 88.8392 439.3 89.064L436.778 96.5668C436.692 96.8228 436.691 97.1261 436.775 97.3835L437.513 99.6365C437.613 99.9426 437.818 100.136 438.042 100.136H441.438C441.668 100.136 441.877 99.9319 441.974 99.613L442.658 97.3635C442.733 97.117 442.731 96.8322 442.653 96.5878L440.263 89.0799C440.201 88.8872 440.094 88.7424 439.967 88.6697V95.8732C440.223 95.9735 440.411 96.3272 440.411 96.7481C440.411 97.2471 440.146 97.6516 439.82 97.6516C439.493 97.6516 439.228 97.2471 439.228 96.7481C439.228 96.3272 439.417 95.9735 439.672 95.8732V88.6338Z" fill="#BDCDF0"/>
<path d="M437.307 101.491C437.307 100.992 437.571 100.588 437.898 100.588H441.741C442.068 100.588 442.333 100.992 442.333 101.491C442.333 101.99 442.068 102.394 441.741 102.394H437.898C437.571 102.394 437.307 101.99 437.307 101.491Z" fill="#BDCDF0"/>
<path d="M438.334 103.73C438.334 103.231 438.598 102.827 438.925 102.827H440.847C441.173 102.827 441.438 103.231 441.438 103.73C441.438 104.229 441.173 104.634 440.847 104.634H438.925C438.598 104.634 438.334 104.229 438.334 103.73Z" fill="#BDCDF0"/>
<path d="M485.5 89L520.5 79.5M486 96.5L515 89M485.5 110.5L517 104M485.5 119L520.5 113M485.5 82L507.5 76" stroke="#CDDCFF" stroke-width="2" stroke-linecap="round"/>
<path d="M511 211.413V147.662C511 144.655 508.365 142.328 505.382 142.7L429.382 152.168C426.879 152.48 425 154.608 425 157.13V202.959C425 205.507 426.915 207.647 429.447 207.928L505.447 216.382C508.409 216.712 511 214.393 511 211.413Z" fill="#E8EBF2"/>
<path fill-rule="evenodd" clip-rule="evenodd" d="M486.924 145.15L505.393 142.892C508.373 142.528 511 144.853 511 147.855V155.793H504.726C499.858 152.938 491.698 148.105 486.924 145.15Z" fill="#D2DBEE"/>
<path d="M505 211.421V148.652C505 145.649 502.371 143.323 499.39 143.69L423.39 153.032C420.883 153.34 419 155.469 419 157.994V203.08C419 205.63 420.919 207.772 423.455 208.05L499.455 216.391C502.414 216.716 505 214.399 505 211.421Z" fill="#EFF2FA"/>
<path fill-rule="evenodd" clip-rule="evenodd" d="M505 155.974L419.18 160.354L419 159.278V158.005C419 155.48 420.883 153.351 423.39 153.043L499.39 143.702C502.371 143.336 505 145.661 505 148.665V155.974Z" fill="#DEE5F5"/>
<g filter="url(#filter4_d)">
<path d="M423 168.381C423 165.669 425.162 163.451 427.874 163.383L437.874 163.13C440.684 163.059 443 165.317 443 168.128V199.465C443 202.427 440.44 204.739 437.494 204.44L427.494 203.422C424.942 203.162 423 201.013 423 198.448V168.381Z" fill="white"/>
<path d="M441 175.5C441 173.284 440.237 171.156 438.873 169.569C437.509 167.982 435.652 167.061 433.697 167.003C431.743 166.945 429.846 167.753 428.41 169.257C426.974 170.761 426.113 172.84 426.01 175.053C425.908 177.265 426.571 179.436 427.859 181.102C429.148 182.768 430.96 183.799 432.908 183.974C434.857 184.148 436.789 183.454 438.293 182.038C439.797 180.622 440.753 178.597 440.958 176.393L437.746 176.009C437.629 177.263 437.085 178.416 436.229 179.222C435.373 180.028 434.273 180.424 433.163 180.324C432.054 180.225 431.022 179.638 430.289 178.69C429.555 177.741 429.177 176.505 429.236 175.245C429.294 173.986 429.785 172.802 430.602 171.946C431.42 171.089 432.5 170.629 433.612 170.662C434.725 170.695 435.782 171.22 436.559 172.123C437.336 173.027 437.77 174.239 437.77 175.5H441Z" fill="#DEE5F5"/>
<path d="M441 175.5C441 177.503 440.376 179.442 439.237 180.975C438.099 182.507 436.519 183.535 434.777 183.876C433.036 184.217 431.243 183.85 429.717 182.84C428.191 181.829 427.028 180.24 426.435 178.353C425.842 176.466 425.856 174.402 426.474 172.525C427.093 170.649 428.276 169.08 429.816 168.096C431.356 167.112 433.153 166.776 434.89 167.147C436.627 167.518 438.192 168.573 439.31 170.125L436.808 172.44C436.171 171.556 435.28 170.956 434.291 170.744C433.302 170.533 432.279 170.724 431.403 171.285C430.526 171.845 429.852 172.738 429.5 173.806C429.148 174.875 429.14 176.05 429.478 177.124C429.815 178.199 430.477 179.104 431.346 179.679C432.215 180.254 433.236 180.463 434.227 180.269C435.219 180.074 436.118 179.49 436.766 178.617C437.415 177.745 437.77 176.641 437.77 175.5H441Z" fill="#48C5A1"/>
<path d="M428 188L438.5 188.5M430.5 192.5L436 193" stroke="#CDDCFF" stroke-width="2" stroke-linecap="round"/>
</g>
<g filter="url(#filter5_d)">
<path d="M447 167.425C447 164.709 449.168 162.49 451.882 162.426L464.882 162.12C467.689 162.054 470 164.312 470 167.119V201.927C470 204.902 467.418 207.219 464.46 206.898L451.46 205.485C448.922 205.209 447 203.066 447 200.514V167.425Z" fill="white"/>
<path d="M467 175C467 172.393 466.135 169.89 464.589 168.023C463.043 166.155 460.939 165.072 458.724 165.003C456.509 164.935 454.359 165.886 452.732 167.655C451.104 169.424 450.128 171.871 450.012 174.474C449.895 177.077 450.647 179.63 452.107 181.591C453.568 183.551 455.621 184.763 457.829 184.969C460.038 185.174 462.228 184.357 463.932 182.692C465.636 181.026 466.72 178.643 466.953 176.051L463.313 175.598C463.18 177.074 462.563 178.431 461.593 179.379C460.622 180.328 459.376 180.793 458.118 180.676C456.861 180.559 455.692 179.869 454.86 178.752C454.029 177.636 453.601 176.182 453.667 174.7C453.734 173.218 454.289 171.825 455.216 170.818C456.142 169.811 457.366 169.269 458.627 169.308C459.888 169.348 461.087 169.964 461.967 171.027C462.847 172.091 463.339 173.516 463.339 175H467Z" fill="#DEE5F5"/>
<path d="M450.992 170.312C451.554 169.067 452.333 167.976 453.278 167.11C454.223 166.244 455.313 165.623 456.476 165.288C457.64 164.952 458.85 164.91 460.029 165.163C461.207 165.416 462.327 165.96 463.314 166.758C464.301 167.556 465.134 168.591 465.757 169.794C466.381 170.997 466.781 172.342 466.932 173.74C467.083 175.138 466.981 176.558 466.633 177.906C466.285 179.255 465.699 180.501 464.912 181.564L462.151 178.737C462.598 178.132 462.932 177.422 463.131 176.655C463.329 175.887 463.387 175.079 463.301 174.283C463.215 173.487 462.987 172.721 462.632 172.036C462.277 171.351 461.803 170.762 461.241 170.308C460.679 169.853 460.041 169.544 459.37 169.399C458.699 169.255 458.01 169.279 457.348 169.47C456.685 169.661 456.065 170.015 455.527 170.508C454.989 171.001 454.545 171.622 454.225 172.331L450.992 170.312Z" fill="#F65D6D"/>
<path d="M453 189L463.5 189.5M455.5 193.5L461 194" stroke="#CDDCFF" stroke-width="2" stroke-linecap="round"/>
</g>
<g filter="url(#filter6_d)">
<path d="M474 165.46C474 162.74 476.175 160.518 478.896 160.461L495.896 160.107C498.697 160.048 501 162.303 501 165.105V205.395C501 208.382 498.399 210.702 495.431 210.363L478.431 208.416C475.906 208.127 474 205.99 474 203.449V165.46Z" fill="white"/>
<path d="M498 174.5C498 171.502 496.931 168.623 495.022 166.476C493.112 164.329 490.512 163.083 487.776 163.004C485.04 162.925 482.384 164.019 480.374 166.054C478.364 168.088 477.159 170.901 477.015 173.895C476.871 176.888 477.799 179.825 479.603 182.079C481.407 184.334 483.943 185.728 486.672 185.964C489.4 186.201 492.105 185.261 494.21 183.345C496.315 181.43 497.654 178.69 497.942 175.709L493.445 175.188C493.281 176.885 492.519 178.445 491.32 179.536C490.122 180.627 488.582 181.162 487.028 181.027C485.475 180.892 484.031 180.099 483.004 178.815C481.977 177.532 481.448 175.86 481.53 174.155C481.612 172.451 482.298 170.849 483.443 169.691C484.587 168.533 486.1 167.91 487.657 167.955C489.215 168 490.695 168.709 491.782 169.932C492.87 171.154 493.478 172.793 493.478 174.5H498Z" fill="#DEE5F5"/>
<path d="M498 174.5C498 176.391 497.574 178.253 496.76 179.921C495.946 181.589 494.769 183.011 493.333 184.062C491.898 185.113 490.248 185.759 488.529 185.945C486.811 186.13 485.077 185.848 483.482 185.125C481.887 184.401 480.479 183.257 479.383 181.796C478.288 180.334 477.539 178.598 477.202 176.744C476.865 174.889 476.951 172.971 477.452 171.162C477.953 169.352 478.854 167.706 480.075 166.368L483.273 169.87C482.578 170.632 482.065 171.569 481.779 172.599C481.494 173.63 481.445 174.721 481.637 175.777C481.828 176.833 482.255 177.821 482.879 178.654C483.502 179.486 484.304 180.137 485.212 180.549C486.121 180.961 487.108 181.122 488.086 181.016C489.064 180.91 490.004 180.542 490.821 179.944C491.639 179.346 492.309 178.536 492.772 177.586C493.236 176.637 493.478 175.577 493.478 174.5H498Z" fill="#EC9216"/>
<path d="M482 191L492.5 191.5M484.5 195.5L490 196" stroke="#CDDCFF" stroke-width="2" stroke-linecap="round"/>
</g>
<path d="M539.716 325.546L539.787 235.627C539.789 233.049 537.831 230.892 535.265 230.646L421.221 219.71C418.101 219.411 415.478 222.022 415.764 225.143L422.286 296.293C422.468 298.283 423.817 299.972 425.716 300.591L526.763 333.499C528.013 333.906 529.372 333.804 530.548 333.217L536.952 330.015C538.645 329.168 539.714 327.439 539.716 325.546Z" fill="#E8EBF2"/>
<mask id="mask0" mask-type="alpha" maskUnits="userSpaceOnUse" x="415" y="219" width="125" height="115">
<path d="M539.637 325.542L539.709 235.629C539.711 233.05 537.752 230.893 535.185 230.647L420.72 219.708C417.6 219.41 414.979 222.022 415.266 225.143L421.809 296.291C421.992 298.281 423.343 299.972 425.244 300.589L526.654 333.503C527.9 333.907 529.255 333.806 530.427 333.222L536.867 330.013C538.563 329.168 539.636 327.437 539.637 325.542Z" fill="#E8EBF2"/>
</mask>
<g mask="url(#mask0)">
<path d="M540.713 245.634L532.213 247.634L413.713 228.134L418.713 216.134L541.213 228.134L540.713 245.634Z" fill="#D2DBEE"/>
</g>
<path d="M532.324 328.119V234.581C532.324 232.01 530.374 229.858 527.815 229.606L420.611 219.022C417.669 218.731 415.119 221.042 415.119 223.997V294.319C415.119 296.501 416.535 298.431 418.616 299.087L525.821 332.887C529.043 333.903 532.324 331.497 532.324 328.119Z" fill="#EFF2FA"/>
<mask id="mask1" mask-type="alpha" maskUnits="userSpaceOnUse" x="415" y="218" width="118" height="116">
<path d="M532.324 328.119V234.581C532.324 232.01 530.374 229.858 527.815 229.606L420.611 219.022C417.669 218.731 415.119 221.042 415.119 223.997V294.319C415.119 296.501 416.535 298.431 418.616 299.087L525.821 332.887C529.043 333.903 532.324 331.497 532.324 328.119Z" fill="#EFF2FA"/>
</mask>
<g mask="url(#mask1)">
<path d="M539.211 248.634L411.211 230.634L415.211 215.134L539.211 230.634V248.634Z" fill="#DEE5F5"/>
</g>
<path d="M432.5 252C438 254.333 448.134 261.738 450 272C451 277.5 464 267 467.5 265C471.841 262.519 492.5 249 493 274C493.4 294 509.833 292.667 518 289.5" stroke="#DEE5F5" stroke-width="2"/>
<g filter="url(#filter7_d)">
<path d="M433.252 261.81C433.252 261.81 444.023 268.943 448.252 264.811C452.616 260.546 461.148 246.183 470.082 254.613C479.016 263.042 475.047 272.5 482 272.697C493.174 273.014 495.761 263.699 504.133 268.333C509.739 271.435 506.138 283.478 517.216 283.224" stroke="#3D58FF" stroke-width="3" stroke-linecap="round" stroke-linejoin="round"/>
</g>
<ellipse cx="427" cy="287" rx="3" ry="4" fill="#3D58FF"/>
<path d="M436 286.5L454 292.5M436 291.5L446 295M472.5 299C472.9 299 478.333 300.667 481 301.5M472.5 304L485.5 308.5M503.5 312L518 317" stroke="#CDDCFF" stroke-width="2" stroke-linecap="round"/>
<ellipse cx="464" cy="300" rx="3" ry="4" fill="#E44758"/>
<ellipse cx="498" cy="310" rx="3" ry="4" fill="#0CAF80"/>
<path d="M340.651 122.243C352.296 116.271 352.72 125.478 351.475 130.829L245.842 130.828C246.737 121.273 255.671 122.119 260.026 123.736C266.595 116.57 275.952 118.511 279.809 120.377C283.989 116.495 288.02 118.76 289.513 120.377C303.847 103.356 319.623 113.285 325.72 120.377C332.887 114.704 338.66 119.257 340.651 122.243Z" fill="#EFF2FA"/>
<circle r="11.1632" transform="matrix(-1 0 0 1 310.893 396.9)" stroke="#242E6C" stroke-width="15"/>
<circle r="11.1632" transform="matrix(-1 0 0 1 125.755 388.688)" stroke="#242E6C" stroke-width="15"/>
<path d="M296.337 336.057C289.991 351.609 271.701 383.237 264.236 385.327C256.771 387.418 270.83 385.327 276.927 385.327L282.373 379.422L305.295 371.89L304.175 366.664L288.721 372.537L303.429 356.586L296.337 336.057Z" fill="#E44758"/>
<rect width="4.98457" height="181.751" rx="2.49229" transform="matrix(-0.983918 0.178622 0.178622 0.983918 278.43 205.041)" fill="#9D303C"/>
<path d="M198.394 367.643L213.994 337.082L196.44 333.041L184.976 363.046C178.44 365.541 177.651 373.294 177.544 376.677L220.271 391.315C221.733 385.898 219.634 382.811 211.038 380.261C204.161 378.22 199.744 370.999 198.394 367.643Z" fill="#FFAD95"/>
<mask id="mask2" mask-type="alpha" maskUnits="userSpaceOnUse" x="177" y="333" width="44" height="59">
<path d="M198.394 367.643L213.994 337.082L196.44 333.041L184.976 363.046C178.44 365.541 177.651 373.294 177.544 376.677L220.271 391.315C221.733 385.898 219.634 382.811 211.038 380.261C204.161 378.22 199.744 370.999 198.394 367.643Z" fill="#FFAD95"/>
</mask>
<g mask="url(#mask2)">
<path d="M189.493 345.26C194.876 345.21 203.957 351.793 207.825 355.091L198.579 374.019L178.644 372.318C180.017 363.319 184.11 345.309 189.493 345.26Z" fill="white"/>
<path d="M188.635 348.912C195.342 348.684 203.248 356.548 206.363 360.509L202.802 362.84C199.274 355.634 191.081 352.906 187.425 352.443L188.635 348.912Z" fill="#EC9216"/>
<path d="M190.021 366.748C188.172 362.011 185.732 361.99 184.744 362.572L178.924 366.891L175.295 377.484L222.854 392.989C222.208 390.269 220.893 384.663 220.804 384.001C220.715 383.339 206.527 373.849 199.444 369.186C197.073 370.347 191.87 371.485 190.021 366.748Z" fill="#3D58FF"/>
<path d="M185.484 372.36C186.182 374.115 194.443 380.82 198.486 383.953L179.331 382.434C178.117 378.64 176.399 370.413 179.244 367.857C182.799 364.663 184.546 369.049 184.568 369.422L184.568 369.422C184.589 369.794 184.61 370.167 185.484 372.36Z" fill="#2D44D5"/>
<path fill-rule="evenodd" clip-rule="evenodd" d="M207.939 383.54C198.405 380.274 192.131 373.941 189.554 365.799C189.522 365.697 189.493 365.598 189.468 365.5C189.656 365.874 189.841 366.289 190.02 366.748C190.811 368.774 191.411 367.861 192.372 366.397C193.658 364.439 195.59 361.496 199.492 363.285C203.853 366.156 210.889 373.094 215.674 378.157L216.685 382.196L207.939 383.54Z" fill="#6B80FD"/>
<path d="M204.678 386.891C200.828 393.045 214.92 393.221 222.622 392.515L220.935 382.468L217.515 382.085C215.471 380.895 210.487 380.022 205.952 385.226L177.443 374.669L176.707 377.968L204.678 386.891Z" fill="white"/>
<path d="M203.472 381.614C204.111 380.518 207.208 378.081 210.695 378.959M198.891 378.861C199.53 377.765 201.445 375.554 203.995 375.48M194.088 374.454C194.451 373.394 198.133 370.71 201.079 371.325" stroke="white" stroke-width="2" stroke-linecap="round"/>
</g>
<path d="M199.201 369.893C202.188 370.39 208.12 370.581 207.957 367.369C207.795 364.157 202.053 367.713 199.201 369.893ZM199.201 369.893C199.887 367.892 200.643 364.074 198.182 364.809C195.72 365.544 197.836 368.504 199.201 369.893Z" stroke="#2537A9"/>
<rect width="117.205" height="8.21181" rx="4.1059" transform="matrix(-1 0 0 1 271.328 387.94)" fill="#9D303C"/>
<path d="M117.169 352.48C147.926 355.466 154.371 376.618 153.749 386.821L141.432 385.328C133.668 363.529 114.805 365.047 106.345 368.531C97.1376 361.936 86.4126 349.494 117.169 352.48Z" fill="#E44758"/>
<path d="M277.301 387.567C277.301 385.712 275.797 384.208 273.941 384.208H125.382C123.527 384.208 122.023 385.712 122.023 387.567C122.023 389.423 123.527 390.927 125.382 390.927H273.941C275.797 390.927 277.301 389.423 277.301 387.567Z" fill="#F65D6D"/>
<path d="M180.624 369.278L185.477 335.311L167.56 337.177L166.44 369.278C161.065 373.757 162.832 381.346 163.827 384.581H208.992C208.619 378.982 205.633 376.743 196.674 377.116C189.508 377.415 182.988 372.015 180.624 369.278Z" fill="#FFAD95"/>
<mask id="mask3" mask-type="alpha" maskUnits="userSpaceOnUse" x="162" y="335" width="47" height="50">
<path d="M180.624 369.278L185.477 335.311L167.56 337.177L166.44 369.278C161.065 373.757 162.832 381.346 163.827 384.581H208.992C208.619 378.982 205.633 376.743 196.674 377.116C189.508 377.415 182.988 372.015 180.624 369.278Z" fill="#FFAD95"/>
</mask>
<g mask="url(#mask3)">
<path d="M164.947 350.988C170.023 349.196 180.749 352.481 185.477 354.347L182.864 375.25L163.454 380.102C161.837 371.144 159.871 352.779 164.947 350.988Z" fill="white"/>
<path d="M165.32 354.72C171.591 352.331 181.619 357.209 185.85 359.946L183.237 363.305C177.563 357.632 168.928 357.706 165.32 358.453V354.72Z" fill="#EC9216"/>
<path d="M172.413 371.144C169.128 367.262 166.814 368.034 166.067 368.905L161.961 374.877V386.074L211.979 385.328C210.485 382.964 207.425 378.087 207.126 377.489C206.827 376.892 190.329 372.513 182.117 370.397C180.251 372.264 175.697 375.026 172.413 371.144Z" fill="#3D58FF"/>
<path fill-rule="evenodd" clip-rule="evenodd" d="M194.81 381.222C184.732 381.222 176.744 377.265 171.668 370.397C171.606 370.314 171.548 370.231 171.493 370.149C171.791 370.44 172.098 370.771 172.414 371.144C173.819 372.805 174.09 371.747 174.525 370.05C175.107 367.782 175.981 364.371 180.253 364.798C185.31 366.101 194.217 370.385 200.384 373.625L202.648 377.116L194.81 381.222Z" fill="#6B80FD"/>
<path d="M192.808 385.45C191.159 392.52 204.548 388.118 211.605 384.955L206.753 375.996L203.394 376.743C201.075 376.279 196.076 377.069 193.473 383.461L163.081 382.715L163.454 386.074L192.808 385.45Z" fill="white"/>
<path d="M189.956 380.849C190.204 379.605 192.344 376.295 195.928 375.996M184.73 379.729C184.979 378.485 186.074 375.772 188.462 374.877M178.758 377.116C178.758 375.996 181.37 372.264 184.357 371.89" stroke="white" stroke-width="2" stroke-linecap="round"/>
</g>
<path d="M182.12 371.144C185.106 370.646 190.78 368.904 189.585 365.918C188.391 362.932 184.111 368.158 182.12 371.144ZM182.12 371.144C182.12 369.029 181.598 365.172 179.507 366.665C177.417 368.158 180.378 370.273 182.12 371.144Z" stroke="#2537A9"/>
<path d="M247.811 133.375C244.228 127.701 242.088 120.31 241.466 117.324L233.254 112.099L225.415 121.803C225.789 128.025 227.506 140.989 231.388 143.08C235.27 145.17 238.977 143.702 240.719 141.96C241.615 145.244 238.106 145.817 235.867 146.439C238.554 146.738 238.977 149.052 238.853 150.172C248.931 148.305 252.29 141.213 247.811 133.375Z" fill="#FFCA63"/>
<path d="M237.734 298.73C237.734 291.265 226.536 236.768 221.684 208.4L172.413 210.267L211.606 295.744C209.814 298.133 198.915 321.002 194.809 329.338C193.689 329.338 193.316 328.965 192.569 330.084C191.823 331.204 192.569 338.296 195.182 337.55C197.795 336.803 209.366 341.656 211.606 342.029C213.845 342.402 213.099 343.522 216.085 339.416C218.474 336.131 217.08 334.564 216.085 334.19C222.804 326.849 237.734 306.196 237.734 298.73Z" fill="#DCEBF1"/>
<path d="M219.124 146.178C219.128 146.373 219.133 146.572 219.138 146.775C218.659 147.098 218.038 147.5 217.249 147.998C211.121 151.867 218.05 183.118 218.822 184.449C219.594 185.78 228.52 189.08 224.139 181.888C220.706 176.252 219.389 156.515 219.138 146.775C221.639 145.096 220.313 145.605 219.124 146.178Z" fill="white"/>
<path d="M221.815 124.837C220.933 122.052 226.974 115.146 234.379 114.2C241.784 113.254 245.024 126.236 245.276 127.031L234.964 128.199C232.666 128.869 227.92 129.731 227.314 127.822C226.558 125.435 229.709 126.537 230.796 124.442C231.883 122.346 229.787 120.798 226.88 121.48C224.761 121.977 222.537 127.115 221.815 124.837Z" fill="#FFAD95"/>
<path fill-rule="evenodd" clip-rule="evenodd" d="M243.733 122.523C243.661 122.522 243.583 122.515 243.5 122.501C240.5 122.001 232.999 119.5 230 117.001L231.525 114.864C232.444 114.554 233.4 114.325 234.379 114.2C234.395 114.198 234.411 114.196 234.426 114.194L239.583 116.05C241.438 117.747 242.804 120.301 243.733 122.523Z" fill="#FF948D"/>
<path d="M233.235 128.083C237.374 123.809 244.781 123.539 247.967 123.938C253.806 134.218 269.24 163.918 270.993 172.814C273.186 183.934 258.547 193.746 247.72 189.415C231.288 182.843 209.8 122.506 233.964 130.659L233.235 128.083Z" fill="#2A3EC0"/>
<path fill-rule="evenodd" clip-rule="evenodd" d="M233.085 172.56C239.967 177.409 256.142 186.592 266.5 184.999C266.529 184.995 266.558 184.99 266.587 184.986C261.782 189.615 254.092 191.963 247.721 189.415C242.846 187.465 237.526 180.783 233.085 172.56Z" fill="#213094"/>
<path d="M233.697 130.57L248.075 174.373C241.854 162.376 230.149 137.848 229.951 129.902C231.049 129.906 232.294 130.12 233.697 130.57Z" fill="#213094"/>
<path fill-rule="evenodd" clip-rule="evenodd" d="M208.843 208.888L201.045 272.712L210.84 294.074L209.019 208.881L208.843 208.888Z" fill="#AFD4E2"/>
<path d="M203.394 291.639C207.873 279.993 210.113 227.064 208.246 202.429C199.039 199.443 172.242 196.392 170.92 208.028C169.053 224.451 175.026 268.497 175.772 276.335C176.369 282.606 167.063 319.012 162.335 336.43C157.856 338.67 159.349 344.269 160.468 345.389C161.588 346.509 187.343 348.002 188.463 348.002C189.583 348.002 192.942 344.642 193.316 341.656C193.614 339.267 191.449 338.421 190.329 338.297C192.818 327.597 198.915 303.285 203.394 291.639Z" fill="#E9F3F8"/>
<path fill-rule="evenodd" clip-rule="evenodd" d="M190.357 338.174C190.57 337.259 190.809 336.248 191.07 335.155C189.356 336.057 184.991 337.452 178.386 337.176L190.357 338.174ZM163.12 333.517C162.846 334.536 162.584 335.509 162.334 336.43C162.213 336.49 162.097 336.553 161.985 336.618L170.92 337.176C166.703 336.511 164.287 334.841 163.12 333.517Z" fill="#C2E9F8"/>
<path fill-rule="evenodd" clip-rule="evenodd" d="M216.084 334.191C216.851 333.353 217.725 332.341 218.672 331.195C210.023 327.625 203.141 329.215 200.779 330.458C205.258 329.562 212.848 332.573 216.083 334.191C216.083 334.191 216.083 334.191 216.084 334.191Z" fill="#AFD4E2"/>
<path d="M223.803 211.148C224.697 208.074 224.176 206.736 223.803 206.451C208.305 197.57 182.822 204.174 172.017 208.586C171.396 209.725 170.602 212.344 172.39 213.71C174.625 215.418 183.939 209.013 197.724 209.44C208.752 209.782 219.705 210.721 223.803 211.148Z" fill="white"/>
<path d="M291.857 208.401C296.212 205.539 305.432 204.831 314.391 215.581C325.588 229.019 316.63 253.281 289.755 257.761C262.88 262.24 273.705 312.257 290.502 309.271M300.442 308.808C305.17 307.191 315.149 305.748 317.239 312.914C319.852 321.873 307.908 338.296 287.751 346.881C267.595 355.466 256.024 369.65 256.397 384.208" stroke="#9D303C" stroke-width="2"/>
<path d="M303.489 202.409C303.114 199.74 300.647 197.88 297.978 198.255L274.205 201.592C271.586 201.959 269.707 204.303 269.916 206.94L270.245 211.069C270.502 214.298 273.715 216.435 276.792 215.422L300.182 207.723C302.425 206.984 303.817 204.747 303.489 202.409Z" fill="#F65D6D"/>
<circle r="5.59896" transform="matrix(-1 0 0 1 282.899 203.175)" fill="#9D303C"/>
<path d="M230.269 170.702C236.839 162.639 233.006 140.965 230.269 131.136L224.297 127.776C222.804 120.684 221.319 107.056 204 119.001C182.351 133.931 170.547 196.084 169.427 202.429C168.307 208.774 175.399 211.014 180.252 207.281C185.104 203.549 209.366 206.162 215.712 207.281C222.057 208.401 228.03 204.669 226.163 201.309C224.297 197.95 222.057 180.78 230.269 170.702Z" fill="#3D58FF"/>
<path d="M230.269 170.702C236.839 162.639 233.006 140.965 230.269 131.136L224.297 127.776C222.804 120.684 221.319 107.056 204 119.001C182.351 133.931 170.547 196.084 169.427 202.429C168.307 208.774 175.399 211.014 180.252 207.281C185.104 203.549 209.366 206.162 215.712 207.281C222.057 208.401 228.03 204.669 226.163 201.309C224.297 197.95 222.057 180.78 230.269 170.702Z" fill="#3D58FF"/>
<path d="M220.999 145.5C220.999 136.7 210.999 132.167 205.999 131C203.833 128.667 201.8 124.9 211 128.5C222.5 133 231 137.5 223.5 168C217.5 192.4 196.333 192.833 186.499 190C177.333 186.5 164.899 180.7 188.499 185.5C217.999 191.5 220.999 156.5 220.999 145.5Z" fill="#48C5A1"/>
<path d="M230.643 133.001C230.643 131.508 230.269 128.522 227.283 127.402C228.776 130.015 227.656 129.641 224.67 128.521C221.684 127.402 204.514 112.844 214.592 125.536C223.621 136.906 230.643 135.614 230.643 133.001Z" fill="white"/>
<path d="M227.657 128.15C224.372 122.775 230.27 116.952 233.629 114.712L223.924 102.768L213.099 120.684C219.32 125.412 230.941 133.525 227.657 128.15Z" fill="#FF8982"/>
<path d="M255.275 99.4082C258.858 91.0471 257.764 82.9846 255.275 79.252L249.303 84.4776C247.685 91.4452 245.496 104.933 249.676 103.141C253.857 101.349 254.404 95.9244 254.155 93.436C255.35 93.436 255.399 97.4175 255.275 99.4082Z" fill="#FFCA63"/>
<path d="M250.8 88.2103C250.203 81.6408 243.335 77.2612 239.976 75.8926L227.285 94.1825C223.925 89.7033 220.939 90.8231 220.193 96.0488C219.446 101.275 224.299 103.887 224.299 104.261C225.418 111.726 224.299 112.099 235.497 118.071C240.669 120.83 243.85 118.536 246.119 115.459C246.663 115.085 247.814 115.459 248.188 114.339C248.471 113.489 247.814 113.372 247.441 113.448C248.312 113.247 249.95 112.656 249.532 111.899C249.115 111.141 249.359 110.224 249.532 109.86C249.709 109.585 249.882 109.334 250.054 109.113C251.049 109.113 253.115 108.665 253.413 106.873C253.786 104.634 250.8 103.887 250.054 101.275C249.307 98.6617 251.547 96.4221 250.8 88.2103Z" fill="#FFAD95"/>
<mask id="mask4" mask-type="alpha" maskUnits="userSpaceOnUse" x="220" y="75" width="34" height="45">
<path d="M250.8 88.2103C250.203 81.6408 243.335 77.2612 239.976 75.8926L227.285 94.1825C223.925 89.7033 220.939 90.8231 220.193 96.0488C219.446 101.275 224.299 103.887 224.299 104.261C225.418 111.726 224.299 112.099 235.497 118.071C240.669 120.83 243.85 118.536 246.119 115.459C246.663 115.085 247.814 115.459 248.188 114.339C248.471 113.489 247.814 113.372 247.441 113.448C248.312 113.247 249.95 112.656 249.532 111.899C249.115 111.141 249.359 110.224 249.532 109.86C249.709 109.585 249.882 109.334 250.054 109.113C251.049 109.113 253.115 108.665 253.413 106.873C253.786 104.634 250.8 103.887 250.054 101.275C249.307 98.6617 251.547 96.4221 250.8 88.2103Z" fill="#FFAD95"/>
</mask>
<g mask="url(#mask4)">
<g filter="url(#filter8_f)">
<circle r="8.21181" transform="matrix(-1 0 0 1 232.513 103.514)" fill="#FF7A72"/>
</g>
</g>
<path d="M227.283 96.0479C244.454 98.2875 256.398 94.5551 257.145 81.1174C256.398 65.8136 220.682 57.3982 211.233 69.5462C203.146 80.7441 180.178 103.961 153.004 107.246C119.037 111.352 109.705 154.277 122.023 165.848L126.129 165.102C123.516 163.733 116.145 150.171 123.889 143.079C119.783 151.664 129.115 162.862 129.115 162.862L152.257 159.13C152.257 159.13 159.101 156.765 155.617 153.904C161.216 146.438 166.442 135.614 176.146 125.909C185.851 116.204 197.422 127.029 207.874 128.522C218.325 130.015 226.164 105.753 224.297 104.26C222.431 102.767 218.699 96.0478 221.311 92.6884C223.402 90.0009 225.417 92.3153 226.537 94.1816L227.283 96.0479Z" fill="#FFCA63"/>
<mask id="mask5" mask-type="alpha" maskUnits="userSpaceOnUse" x="116" y="63" width="142" height="103">
<path d="M227.283 96.0479C244.454 98.2875 256.398 94.5551 257.145 81.1174C256.398 65.8136 220.682 57.3982 211.233 69.5462C203.146 80.7441 180.178 103.961 153.004 107.246C119.037 111.352 109.705 154.277 122.023 165.848L126.129 165.102C123.516 163.733 116.145 150.171 123.889 143.079C119.783 151.664 129.115 162.862 129.115 162.862L152.257 159.13C152.257 159.13 164.484 157.862 161 155C166.599 147.535 168.796 139.705 178.5 130C188.205 120.295 197.422 127.029 207.874 128.522C218.325 130.015 226.164 105.753 224.297 104.26C222.431 102.767 218.699 96.0478 221.311 92.6884C223.402 90.0009 225.417 92.3153 226.537 94.1816L227.283 96.0479Z" fill="#FFBA34"/>
</mask>
<g mask="url(#mask5)">
<path d="M151.884 128.149C168.5 113.5 207.182 118.763 219.5 121.5C206.933 134.315 168.905 160.1 168.308 160.996C167.561 162.116 143.299 170.701 139.94 162.862C136.58 155.024 138.618 139.845 151.884 128.149Z" fill="#F4B53B"/>
</g>
<path d="M145.377 185.322C142.391 173.974 157.819 153.47 165.907 144.636L188.499 141.5C190.832 139.167 195.999 135 197.999 137C200.499 139.5 189.499 175 187.999 186.5C186.799 195.7 183.508 199.292 181.999 199.5C169.027 202.375 148.363 196.669 145.377 185.322Z" fill="#0CAF80"/>
<path fill-rule="evenodd" clip-rule="evenodd" d="M193.488 161.962C193.288 162.763 193.086 163.565 192.885 164.366C191.925 168.189 190.974 171.973 190.161 175.404C179.122 169.846 159.486 158.179 160.01 151.169C160.541 150.49 161.066 149.831 161.583 149.195C166.47 147.684 181.726 155.248 193.488 161.962Z" fill="#109C74"/>
<path d="M161.428 149.488C153.963 139.036 185.69 121.866 187.183 120L201.367 127.092L192.5 165C191.5 173 167.4 157.849 161.428 149.488Z" fill="#48C5A1"/>
<path d="M188.372 132.076C188.218 132.259 188.06 132.447 187.899 132.64C187.236 132.507 186.39 132.323 185.325 132.076C177.053 130.157 157.463 165.176 157.028 167.095C156.592 169.013 161.381 180.047 163.558 169.493C165.264 161.223 180.197 141.845 187.899 132.64C191.356 133.329 189.833 132.613 188.372 132.076Z" fill="white"/>
<path d="M189.641 120.993C197.687 123.857 209.158 127.032 214.781 126.677C196.03 143.72 176.785 139.812 175.827 136.403C174.868 132.994 180.329 128.552 180.781 126.549C178.757 121.969 177.515 116.678 189.641 120.993Z" fill="#3D58FF"/>
<path fill-rule="evenodd" clip-rule="evenodd" d="M210.954 126.518C204.872 125.822 196.139 123.306 189.641 120.994C188.007 120.412 186.617 120.005 185.438 119.747C184.31 119.912 184.197 120.89 186.534 123.461C191.362 128.774 205.874 127.996 212.526 126.943L210.954 126.518Z" fill="#213094"/>
<path d="M214.591 96.7947C216.581 102.891 222.952 115.383 232.507 116.578C225.639 98.9596 230.143 91.8179 233.254 90.4492" stroke="#213094" stroke-width="3"/>
<path d="M255.818 73.2635C248.357 66.941 235.668 64.215 230.256 63.6424C217.13 62.2679 215.402 64.3296 208.148 66.7349C200.894 69.1402 200.549 78.4177 201.585 83.5719C202.414 87.6953 210.451 95.5984 214.366 99.0345L217.13 97.6601C215.748 90.7878 224.384 90.4442 228.529 90.7878C232.674 91.1314 235.092 93.1931 237.165 92.8495C238.823 92.5746 241.08 89.986 242.001 88.7261C248.08 81.579 254.206 82.312 256.509 83.5719C259.388 82.7702 263.28 79.586 255.818 73.2635Z" fill="#3D58FF"/>
<path fill-rule="evenodd" clip-rule="evenodd" d="M252.457 82.54C248.219 78.9893 238.3 71.7505 232.527 71.2007C235.162 71.0862 241.255 71.132 244.554 72.2316C237.44 69.7157 224.543 65.3731 217.511 63.6533C215.374 64.0595 213.656 64.7073 211.646 65.4658C210.589 65.8644 209.452 66.2936 208.13 66.7343C206.675 67.2191 205.5 67.983 204.559 68.936C203.588 70.7167 202.568 72.6909 201.696 74.4284C201.479 75.3226 201.337 76.2392 201.256 77.1503L215.69 86.6636L210.536 78.4169L226.923 90.7072C227.457 90.7208 227.956 90.75 228.403 90.7872C230.503 90.9622 232.157 91.5829 233.548 92.1044C234.887 92.607 235.982 93.0175 236.993 92.8489C238.643 92.574 240.888 89.9855 241.804 88.7256C245.592 84.2482 249.399 82.8634 252.277 82.7633L252.457 82.54Z" fill="#6B80FD"/>
<path d="M245.945 70.0219C245.175 68.1325 240.095 66.7828 235.168 65.1633C235.937 67.0528 242.866 70.8317 245.945 70.0219Z" fill="#26337E"/>
<path d="M225.93 65.5679C230.241 67.5113 238.247 73.8009 241.326 77.7148C242.481 83.7881 225.93 69.6168 224.005 67.9972C222.08 66.3777 220.541 63.1386 225.93 65.5679Z" fill="#26337E"/>
<path d="M230.934 80.9536C230.626 79.658 220.028 76.095 214.767 74.4754C213.612 74.0705 211.38 73.8276 211.688 76.095C212.073 78.9292 231.318 82.5732 230.934 80.9536Z" fill="#26337E"/>
<path d="M228.239 85.0025C226.041 84.5397 216.82 83.9228 212.458 82.978C208.993 82.5734 209.378 84.5976 209.378 86.2171C209.378 87.8367 221.696 88.2416 226.699 87.4318C231.703 86.622 230.164 85.4077 228.239 85.0025Z" fill="#26337E"/>
<path d="M170.115 156.092L167.946 154.015M171.416 152.768C170.404 151.383 168.206 148.696 167.512 149.028C166.645 149.444 163.608 153.184 164.042 154.43C164.476 155.677 167.512 159.417 168.38 158.586C169.247 157.755 171.85 154.43 171.416 152.768Z" stroke="#EC9216" stroke-width="2" stroke-linecap="round"/>
<path d="M322.465 340.536C322.465 338.147 318.981 337.55 317.239 337.55C315.373 343.273 312.611 355.019 316.493 356.213C321.345 357.706 322.465 343.522 322.465 340.536Z" fill="#EC9216"/>
<path d="M317.24 337.55C307.684 338.147 306.539 345.513 307.161 349.121C307.161 358.453 322.838 359.572 317.986 353.973C314.104 349.793 315.871 341.282 317.24 337.55Z" fill="#E44758"/>
<rect width="9.70486" height="127.937" rx="3" transform="matrix(-0.983918 0.178622 0.178622 0.983918 293.396 270.596)" fill="#F65D6D"/>
<circle r="2.23958" transform="matrix(-1 0 0 1 310.147 390.927)" fill="#9D303C"/>
<path d="M286.972 197.947C277.927 192.239 272.14 195.674 271.395 195.635C267.759 196.067 264.576 200.21 270.808 206.817C278.597 215.075 281.834 210.386 280.421 208.817C279.008 207.247 276.418 206.738 277.772 202.323C279.478 198.301 285.638 201.989 286.6 205.029C287.562 208.07 284.07 210.503 283.933 213.112C283.796 215.722 287.229 214.407 290.034 210.816C292.839 207.226 296.017 203.655 286.972 197.947Z" fill="#FFAD95"/>
<path d="M220.288 138.096C217.372 132.749 212.247 131.292 209.618 131.528C198.435 130.941 195.324 142.553 205.26 166.848C219.904 202.651 229.582 200.017 236.221 203.507C247.249 206.329 263.255 208.29 271.515 207.603L277.143 192.947L234.499 178.5C230.499 166.848 225.067 146.859 220.288 138.096Z" fill="#3146CC"/>
<path d="M237.826 160.126C239.026 152.526 233.5 136.667 229.5 129L233.5 128C237.167 134.333 241.226 145.626 242.826 155.626C244.426 165.626 238.999 176.5 234.499 178.5L232.999 174C234.833 173 236.626 167.726 237.826 160.126Z" fill="#48C5A1"/>
<path d="M230.826 121.626C230.026 120.826 228.166 120.833 227.5 121C226.3 123 226.667 126 227 127C232 125.5 231.826 122.626 230.826 121.626Z" fill="#48C5A1"/>
<path d="M113.81 196.083H35.7978M132.473 231.17H91.7874M82.8291 168.462H57.0739M364.463 189H320.418M346.353 210.5H329.183M309.027 173.687H282.899" stroke="#EFF2FA" stroke-width="2" stroke-linecap="round"/>
<path d="M33.9321 303.956C41.696 301.269 48.3649 315.03 50.729 322.246H0.338326C-0.159363 321.624 -0.482857 319.932 2.20464 318.141C4.89214 316.349 8.30128 317.643 9.66992 318.514C11.163 313.288 17.1352 312.915 21.9876 312.168C26.8401 311.422 24.2272 307.316 33.9321 303.956Z" fill="#EFF2FA"/>
<path d="M86.5623 296.491C73.1248 296.492 75.2399 302.837 74.6178 305.823L72.005 322.246H107.092C107.092 312.915 99.9998 312.914 97.3869 311.421C94.7741 309.928 95.0822 296.491 86.5623 296.491Z" fill="#EFF2FA"/>
<path fill-rule="evenodd" clip-rule="evenodd" d="M89.3759 297.075C89.8846 299.86 90.0734 304.171 87.6828 304.703C87.2092 304.808 86.7504 304.891 86.3221 304.968C83.7128 305.441 82.2368 305.708 85.4432 309.555L85.5212 309.649C86.3943 310.696 86.7945 311.176 86.8139 311.671C86.8304 312.09 86.5743 312.519 86.1016 313.312C85.2975 314.661 83.8667 317.06 82.0839 322.246H82.0841C82.1342 322.179 90.9879 310.306 98.1342 311.795C98.1746 311.803 98.2145 311.811 98.2539 311.819C97.9312 311.694 97.6396 311.564 97.3891 311.421C96.5128 310.92 95.965 309.076 95.3026 306.846C94.2376 303.26 92.8761 298.676 89.3759 297.075ZM23.2774 311.833C24.4451 311.37 25.0164 310.583 25.7134 309.624C26.5942 308.411 27.6758 306.922 30.4152 305.459C31.3676 306.453 32.2659 308.555 32.0666 312.541C31.768 318.514 34.4305 320.007 35.7991 320.007C32.1211 320.481 24.7323 319.44 23.2774 311.833ZM21.6447 322.246H22.3606C20.9911 321.872 17.2842 320.753 13.4033 319.26C11.452 318.51 12.8771 316.156 13.9239 314.427C14.0679 314.189 14.2048 313.963 14.3247 313.755C12.1513 314.604 10.3916 315.995 9.67204 318.514C9.43713 318.364 9.14209 318.202 8.80091 318.045C12.0515 320.725 17.9816 322.153 21.6447 322.246Z" fill="#E8EBF2"/>
<path d="M76.3581 293.199C86.6102 299.158 81.6654 315.047 77.9114 322.247H57.4479C58.0951 320.136 62.9991 313.756 65.4846 305.116C68.5914 294.316 39.0774 277.93 53.4459 270.855C67.8145 263.779 54.9993 254.469 44.1258 240.318C33.2523 226.167 57.7177 198.981 67.8145 212.388C77.9113 225.794 66.2612 226.167 65.4846 240.318C64.7079 254.469 85.6782 255.214 82.9598 270.855C80.2414 286.496 63.5429 285.751 76.3581 293.199Z" fill="#EFF2FA"/>
<path d="M72.0057 296.491C80.0682 303.061 74.1209 316.399 70.1394 322.247H64.9137C67.5265 318.514 72.6029 309.481 72.0057 303.21C71.2592 295.372 62.6741 292.012 61.9276 284.547C61.181 277.082 77.2314 272.229 58.9415 251.7C44.3095 235.276 53.3425 225.198 59.688 222.212C56.7019 223.954 52.0734 230.498 57.4484 242.741C64.1672 258.045 74.9918 264.764 70.8859 274.469C66.78 284.174 61.9276 288.28 72.0057 296.491Z" fill="#E8EBF2"/>
<path d="M56.0995 292.302C70.4328 300.066 63.3159 315.444 57.9658 322.163H47.1411C47.1411 316.19 44.5283 316.564 39.3026 310.219C34.0769 303.873 45.2748 302.754 31.0908 292.302C16.9067 281.85 22.1324 273.639 21.7592 267.667C21.3859 261.695 10.9345 265.427 4.58902 250.123C-1.75646 234.819 18.773 234.073 26.9849 246.764C35.1967 259.455 35.9432 257.962 47.1411 266.547C58.339 275.132 38.1828 282.597 56.0995 292.302Z" fill="#3D58FF"/>
<path d="M56.0995 292.302C70.4328 300.066 63.3159 315.444 57.9658 322.163H47.1411C47.1411 316.19 44.5283 316.564 39.3026 310.219C34.0769 303.873 45.2748 302.754 31.0908 292.302C16.9067 281.85 22.1324 273.639 21.7592 267.667C21.3859 261.695 10.9345 265.427 4.58902 250.123C-1.75646 234.819 18.773 234.073 26.9849 246.764C35.1967 259.455 35.9432 257.962 47.1411 266.547C58.339 275.132 38.1828 282.597 56.0995 292.302Z" fill="#EFF2FA"/>
<path fill-rule="evenodd" clip-rule="evenodd" d="M53.4059 322.163C55.7145 313.959 57.9341 301.185 52.5943 299.85C45.129 297.984 37.6639 288.653 40.2767 280.067C42.8896 271.482 33.558 263.271 26.0927 261.404C19.0826 259.652 7.46457 244.405 7.00113 238.843C12.2588 236.246 21.9433 238.972 26.9849 246.764C33.3196 256.554 35.2119 257.903 40.8865 261.95C42.5679 263.149 44.5815 264.584 47.1411 266.547C52.1756 270.407 50.8724 274.04 49.5408 277.752C47.9107 282.297 46.2381 286.96 56.0995 292.302C70.4328 300.066 63.3159 315.444 57.9658 322.163H53.4059Z" fill="#E8EBF2"/>
<path d="M108.825 42.2625C132.756 23.6073 147.804 41.348 152.336 52.5503C159.407 48.1615 163.441 54.8362 164.574 58.7222H12.2825C15.002 52.6867 22.0274 53.464 25.2001 54.6071C26.2879 40.3413 39.2509 40.8902 45.5964 42.9479C71.7035 2.89401 98.6265 25.8019 108.825 42.2625Z" fill="#EFF2FA"/>
<defs>
<filter id="filter0_d" x="616" y="203.129" width="56" height="27.6977" filterUnits="userSpaceOnUse" color-interpolation-filters="sRGB">
<feFlood flood-opacity="0" result="BackgroundImageFix"/>
<feColorMatrix in="SourceAlpha" type="matrix" values="0 0 0 0 0 0 0 0 0 0 0 0 0 0 0 0 0 0 127 0"/>
<feOffset dy="2"/>
<feGaussianBlur stdDeviation="2"/>
<feColorMatrix type="matrix" values="0 0 0 0 0.709804 0 0 0 0 0.74902 0 0 0 0 0.988235 0 0 0 1 0"/>
<feBlend mode="normal" in2="BackgroundImageFix" result="effect1_dropShadow"/>
<feBlend mode="normal" in="SourceGraphic" in2="effect1_dropShadow" result="shape"/>
</filter>
<filter id="filter1_d" x="537.613" y="157.134" width="43" height="49" filterUnits="userSpaceOnUse" color-interpolation-filters="sRGB">
<feFlood flood-opacity="0" result="BackgroundImageFix"/>
<feColorMatrix in="SourceAlpha" type="matrix" values="0 0 0 0 0 0 0 0 0 0 0 0 0 0 0 0 0 0 127 0"/>
<feOffset dy="3"/>
<feGaussianBlur stdDeviation="2"/>
<feColorMatrix type="matrix" values="0 0 0 0 0.733333 0 0 0 0 0.770447 0 0 0 0 1 0 0 0 1 0"/>
<feBlend mode="normal" in2="BackgroundImageFix" result="effect1_dropShadow"/>
<feBlend mode="normal" in="SourceGraphic" in2="effect1_dropShadow" result="shape"/>
</filter>
<filter id="filter2_d" x="544.715" y="26.0125" width="88" height="63.2585" filterUnits="userSpaceOnUse" color-interpolation-filters="sRGB">
<feFlood flood-opacity="0" result="BackgroundImageFix"/>
<feColorMatrix in="SourceAlpha" type="matrix" values="0 0 0 0 0 0 0 0 0 0 0 0 0 0 0 0 0 0 127 0"/>
<feOffset dy="4"/>
<feGaussianBlur stdDeviation="2"/>
<feColorMatrix type="matrix" values="0 0 0 0 0.909804 0 0 0 0 0.921569 0 0 0 0 0.94902 0 0 0 1 0"/>
<feBlend mode="normal" in2="BackgroundImageFix" result="effect1_dropShadow"/>
<feBlend mode="normal" in="SourceGraphic" in2="effect1_dropShadow" result="shape"/>
</filter>
<filter id="filter3_d" x="426.713" y="109.174" width="29" height="30.6952" filterUnits="userSpaceOnUse" color-interpolation-filters="sRGB">
<feFlood flood-opacity="0" result="BackgroundImageFix"/>
<feColorMatrix in="SourceAlpha" type="matrix" values="0 0 0 0 0 0 0 0 0 0 0 0 0 0 0 0 0 0 127 0"/>
<feOffset dy="2"/>
<feGaussianBlur stdDeviation="2"/>
<feColorMatrix type="matrix" values="0 0 0 0 0.717647 0 0 0 0 0.756863 0 0 0 0 0.988235 0 0 0 1 0"/>
<feBlend mode="normal" in2="BackgroundImageFix" result="effect1_dropShadow"/>
<feBlend mode="normal" in="SourceGraphic" in2="effect1_dropShadow" result="shape"/>
</filter>
<filter id="filter4_d" x="418" y="160.128" width="30" height="51.3378" filterUnits="userSpaceOnUse" color-interpolation-filters="sRGB">
<feFlood flood-opacity="0" result="BackgroundImageFix"/>
<feColorMatrix in="SourceAlpha" type="matrix" values="0 0 0 0 0 0 0 0 0 0 0 0 0 0 0 0 0 0 127 0"/>
<feOffset dy="2"/>
<feGaussianBlur stdDeviation="2.5"/>
<feColorMatrix type="matrix" values="0 0 0 0 0.65098 0 0 0 0 0.698039 0 0 0 0 0.988235 0 0 0 0.2 0"/>
<feBlend mode="normal" in2="BackgroundImageFix" result="effect1_dropShadow"/>
<feBlend mode="normal" in="SourceGraphic" in2="effect1_dropShadow" result="shape"/>
</filter>
<filter id="filter5_d" x="442" y="159.119" width="33" height="54.8086" filterUnits="userSpaceOnUse" color-interpolation-filters="sRGB">
<feFlood flood-opacity="0" result="BackgroundImageFix"/>
<feColorMatrix in="SourceAlpha" type="matrix" values="0 0 0 0 0 0 0 0 0 0 0 0 0 0 0 0 0 0 127 0"/>
<feOffset dy="2"/>
<feGaussianBlur stdDeviation="2.5"/>
<feColorMatrix type="matrix" values="0 0 0 0 0.65098 0 0 0 0 0.698039 0 0 0 0 0.988235 0 0 0 0.2 0"/>
<feBlend mode="normal" in2="BackgroundImageFix" result="effect1_dropShadow"/>
<feBlend mode="normal" in="SourceGraphic" in2="effect1_dropShadow" result="shape"/>
</filter>
<filter id="filter6_d" x="469" y="157.105" width="37" height="60.2901" filterUnits="userSpaceOnUse" color-interpolation-filters="sRGB">
<feFlood flood-opacity="0" result="BackgroundImageFix"/>
<feColorMatrix in="SourceAlpha" type="matrix" values="0 0 0 0 0 0 0 0 0 0 0 0 0 0 0 0 0 0 127 0"/>
<feOffset dy="2"/>
<feGaussianBlur stdDeviation="2.5"/>
<feColorMatrix type="matrix" values="0 0 0 0 0.65098 0 0 0 0 0.698039 0 0 0 0 0.988235 0 0 0 0.2 0"/>
<feBlend mode="normal" in2="BackgroundImageFix" result="effect1_dropShadow"/>
<feBlend mode="normal" in="SourceGraphic" in2="effect1_dropShadow" result="shape"/>
</filter>
<filter id="filter7_d" x="424.752" y="243.508" width="106.965" height="54.2201" filterUnits="userSpaceOnUse" color-interpolation-filters="sRGB">
<feFlood flood-opacity="0" result="BackgroundImageFix"/>
<feColorMatrix in="SourceAlpha" type="matrix" values="0 0 0 0 0 0 0 0 0 0 0 0 0 0 0 0 0 0 127 0"/>
<feOffset dx="3" dy="3"/>
<feGaussianBlur stdDeviation="5"/>
<feColorMatrix type="matrix" values="0 0 0 0 0.239216 0 0 0 0 0.345098 0 0 0 0 1 0 0 0 0.5 0"/>
<feBlend mode="normal" in2="BackgroundImageFix" result="effect1_dropShadow"/>
<feBlend mode="normal" in="SourceGraphic" in2="effect1_dropShadow" result="shape"/>
</filter>
<filter id="filter8_f" x="204.301" y="75.3023" width="56.4236" height="56.4236" filterUnits="userSpaceOnUse" color-interpolation-filters="sRGB">
<feFlood flood-opacity="0" result="BackgroundImageFix"/>
<feBlend mode="normal" in="SourceGraphic" in2="BackgroundImageFix" result="shape"/>
<feGaussianBlur stdDeviation="10" result="effect1_foregroundBlur"/>
</filter>
<linearGradient id="paint0_linear" x1="544.754" y1="170.166" x2="582.413" y2="180.097" gradientUnits="userSpaceOnUse">
<stop stop-color="#3D58FF"/>
<stop offset="1" stop-color="#CDD3FB"/>
</linearGradient>
</defs>
</svg>