<svg width="1110" height="1081" viewBox="0 0 1110 1081" fill="none" xmlns="http://www.w3.org/2000/svg">
<path d="M1090 140.35H744C732.954 140.35 724 149.304 724 160.35V392C724 403.046 732.954 412 744 412H1090C1101.05 412 1110 403.046 1110 392V160.35C1110 149.304 1101.05 140.35 1090 140.35Z" fill="#F2F6FB"/>
<path d="M821.452 247.64C839.532 247.64 854.189 232.991 854.189 214.92C854.189 196.85 839.532 182.201 821.452 182.201C803.371 182.201 788.714 196.85 788.714 214.92C788.714 232.991 803.371 247.64 821.452 247.64Z" fill="#D8DEED"/>
<path d="M917.381 247.64C935.461 247.64 950.118 232.991 950.118 214.92C950.118 196.85 935.461 182.201 917.381 182.201C899.3 182.201 884.643 196.85 884.643 214.92C884.643 232.991 899.3 247.64 917.381 247.64Z" fill="#D8DEED"/>
<path d="M1013.31 247.64C1031.39 247.64 1046.05 232.991 1046.05 214.92C1046.05 196.85 1031.39 182.201 1013.31 182.201C995.229 182.201 980.572 196.85 980.572 214.92C980.572 232.991 995.229 247.64 1013.31 247.64Z" fill="#D8DEED"/>
<path d="M821.452 358.735C839.532 358.735 854.189 343.916 854.189 325.635C854.189 307.354 839.532 292.535 821.452 292.535C803.371 292.535 788.714 307.354 788.714 325.635C788.714 343.916 803.371 358.735 821.452 358.735Z" fill="#D8DEED"/>
<path d="M917.381 358.735C935.461 358.735 950.118 343.916 950.118 325.635C950.118 307.354 935.461 292.535 917.381 292.535C899.3 292.535 884.643 307.354 884.643 325.635C884.643 343.916 899.3 358.735 917.381 358.735Z" fill="#D8DEED"/>
<path d="M1012.93 358.735C1031.22 358.735 1046.05 343.916 1046.05 325.635C1046.05 307.354 1031.22 292.535 1012.93 292.535C994.638 292.535 979.811 307.354 979.811 325.635C979.811 343.916 994.638 358.735 1012.93 358.735Z" fill="#D8DEED"/>
<path d="M821.452 214.92C816.826 214.92 813.077 211.343 813.077 206.931C813.077 202.518 816.826 198.941 821.452 198.941C826.077 198.941 829.826 202.518 829.826 206.931C829.826 211.343 826.077 214.92 821.452 214.92ZM821.452 218.725C829.861 218.725 836.679 225.198 836.679 233.183H806.225C806.225 225.198 813.042 218.725 821.452 218.725Z" fill="#F2F6FB"/>
<path d="M917.381 214.92C912.755 214.92 909.006 211.343 909.006 206.931C909.006 202.518 912.755 198.941 917.381 198.941C922.006 198.941 925.755 202.518 925.755 206.931C925.755 211.343 922.006 214.92 917.381 214.92ZM917 218.725C925.199 218.725 931.846 225.198 931.846 233.183H902.154C902.154 225.198 908.801 218.725 917 218.725Z" fill="#F2F6FB"/>
<path d="M1013.31 214.92C1008.68 214.92 1004.93 211.343 1004.93 206.931C1004.93 202.518 1008.68 198.941 1013.31 198.941C1017.93 198.941 1021.68 202.518 1021.68 206.931C1021.68 211.343 1017.93 214.92 1013.31 214.92ZM1012.93 218.725C1021.13 218.725 1027.78 225.198 1027.78 233.183H998.083C998.083 225.198 1004.73 218.725 1012.93 218.725Z" fill="#F2F6FB"/>
<path d="M821.452 325.254C816.826 325.254 813.077 321.507 813.077 316.884C813.077 312.262 816.826 308.514 821.452 308.514C826.077 308.514 829.826 312.262 829.826 316.884C829.826 321.507 826.077 325.254 821.452 325.254ZM821.452 328.298C829.861 328.298 836.679 335.112 836.679 343.517H806.225C806.225 335.112 813.042 328.298 821.452 328.298Z" fill="#F2F6FB"/>
<path d="M917.381 325.254C912.755 325.254 909.006 321.507 909.006 316.884C909.006 312.262 912.755 308.514 917.381 308.514C922.006 308.514 925.755 312.262 925.755 316.884C925.755 321.507 922.006 325.254 917.381 325.254ZM917 328.298C925.199 328.298 931.846 335.112 931.846 343.517H902.154C902.154 335.112 908.801 328.298 917 328.298Z" fill="#F2F6FB"/>
<path d="M1013.31 325.254C1008.68 325.254 1004.93 321.507 1004.93 316.884C1004.93 312.262 1008.68 308.514 1013.31 308.514C1017.93 308.514 1021.68 312.262 1021.68 316.884C1021.68 321.507 1017.93 325.254 1013.31 325.254ZM1012.93 328.298C1021.13 328.298 1027.78 335.112 1027.78 343.517H998.083C998.083 335.112 1004.73 328.298 1012.93 328.298Z" fill="#F2F6FB"/>
<path d="M847.341 256.01H795.562C791.78 256.01 788.714 259.076 788.714 262.859C788.714 266.641 791.78 269.707 795.562 269.707H847.341C851.123 269.707 854.189 266.641 854.189 262.859C854.189 259.076 851.123 256.01 847.341 256.01Z" fill="#E1E5F0"/>
<path d="M943.27 256.01H891.491C887.709 256.01 884.643 259.076 884.643 262.859C884.643 266.641 887.709 269.707 891.491 269.707H943.27C947.052 269.707 950.118 266.641 950.118 262.859C950.118 259.076 947.052 256.01 943.27 256.01Z" fill="#E1E5F0"/>
<path d="M1039.2 256.01H986.659C982.877 256.01 979.811 259.076 979.811 262.859C979.811 266.641 982.877 269.707 986.659 269.707H1039.2C1042.98 269.707 1046.05 266.641 1046.05 262.859C1046.05 259.076 1042.98 256.01 1039.2 256.01Z" fill="#E1E5F0"/>
<path d="M847.341 366.344H795.562C791.78 366.344 788.714 369.411 788.714 373.193C788.714 376.975 791.78 380.041 795.562 380.041H847.341C851.123 380.041 854.189 376.975 854.189 373.193C854.189 369.411 851.123 366.344 847.341 366.344Z" fill="#E1E5F0"/>
<path d="M943.27 366.344H891.491C887.709 366.344 884.643 369.411 884.643 373.193C884.643 376.975 887.709 380.041 891.491 380.041H943.27C947.052 380.041 950.118 376.975 950.118 373.193C950.118 369.411 947.052 366.344 943.27 366.344Z" fill="#E1E5F0"/>
<path d="M1039.2 366.344H986.659C982.877 366.344 979.811 369.411 979.811 373.193C979.811 376.975 982.877 380.041 986.659 380.041H1039.2C1042.98 380.041 1046.05 376.975 1046.05 373.193C1046.05 369.411 1042.98 366.344 1039.2 366.344Z" fill="#E1E5F0"/>
<path d="M724 132.74C724 123.495 731.494 116 740.741 116H1093.26C1102.5 116 1110 123.493 1110 132.74V149.481H724V132.74Z" fill="#E1E5F0"/>
<path d="M767.598 862.8H846.7C849.1 862.8 851.2 860.8 851.2 858.4V857.9C851.2 855.5 849.1 853.5 846.5 853.5H773.2C728.8 853.5 684.4 853.5 640.1 853.5H572.1C569.7 853.5 567.6 855.5 567.6 857.9V858.4C567.6 860.8 569.6 862.8 572.1 862.8H668.601L642 911.6C623.1 946.4 604.2 981.1 585.2 1015.9L553.9 1073.3C552.8 1075.3 553.7 1077.9 555.8 1079.1L556.2 1079.3C558.3 1080.4 561 1079.8 562 1077.9L679.1 862.8H757.1L874.2 1077.9C875.2 1079.8 877.9 1080.5 880 1079.3L880.4 1079.1C882.5 1077.9 883.4 1075.3 882.3 1073.3L851 1015.9C832.1 981.1 813.2 946.4 794.2 911.6L767.598 862.8ZM850.9 823.612V765.469C850.9 721.124 850.9 676.882 850.9 632.639V579.8C850.9 571.516 844.184 564.8 835.9 564.8H672.7C664.416 564.8 657.7 571.516 657.7 579.8V823.784C657.7 832.069 664.416 838.784 672.7 838.784C672.705 838.784 672.711 838.784 672.716 838.784L835.916 838.612C844.194 838.604 850.9 831.891 850.9 823.612Z" fill="#6D7A9C"/>
<path d="M644.809 1079.21C644.051 1079.78 643.117 1080.11 642.1 1080.11H586.6C584.1 1080.11 582 1078.01 582 1075.51C582 1073.01 584.1 1070.91 586.6 1070.91H640.674L740 996.908C742 995.408 744.9 995.808 746.4 997.808C747.9 999.808 747.5 1002.71 745.5 1004.21L645.1 1079.01C645.005 1079.08 644.908 1079.15 644.809 1079.21ZM311.5 1080C309.1 1080 307 1078 307 1075.5C307 1073 309 1071 311.5 1071H470.4C472.9 1071 474.9 1073 474.9 1075.5C474.9 1078 472.9 1080 470.4 1080H311.5Z" fill="#FFCB3D"/>
<path d="M740.496 996.584C740.325 996.68 740.16 996.788 740 996.908L640.674 1070.91H586.6C586.434 1070.91 586.27 1070.92 586.108 1070.93C586.053 1070.61 586.014 1070.3 586 1070C586.1 1069.3 586.1 1068.5 586.3 1067.7C586.8 1065.9 587.6 1064.2 588.5 1062.7C591.4 1058.1 596.6 1054.9 596.6 1054.9C602.6 1051 608.1 1048.4 614.6 1045.6C618 1044.1 622.8 1042.1 628.4 1039.9C630.2 1034.1 632 1028.3 633.8 1022.4C637.2 1011.1 640.6 999.9 643.9 988.7L704.1 945L740.496 996.584ZM472.338 1071.43C471.752 1071.15 471.095 1071 470.4 1071H311.5C311.038 1071 310.592 1071.07 310.174 1071.2C310.009 1070.84 309.883 1070.46 309.8 1070.07V1069.97C309.8 1069.47 309.7 1068.97 309.8 1068.47C309.9 1067.87 309.9 1067.37 310.1 1066.77C311.4 1062.27 314.9 1058.47 317.2 1056.37C317.5 1056.07 317.7 1055.97 318 1055.77C322.4 1053.07 326.9 1050.57 331.6 1048.47C340.8 1044.27 361.2 1035.67 367.3 1032.57C375.2 1028.57 386.1 1021.77 397.5 1009.57C398.1 1009.27 412.811 992 412.811 992C452.737 1005.93 472.7 1012.93 472.7 1013V1069.57C472.7 1070.23 472.571 1070.86 472.338 1071.43Z" fill="#474961"/>
<path d="M544.262 911.945C530.346 938.19 514.097 970.5 495.514 1008.87C492.168 1015.78 484.146 1019.05 476.925 1016.45L402.454 989.59C402.016 989.432 401.586 989.254 401.164 989.056C393.666 985.534 390.443 976.6 393.966 969.102L465.867 816.045C464.412 814.069 462.983 812.107 461.583 810.161C461.495 809.982 461.361 809.935 461.274 809.756C445.618 787.911 449.92 758.223 470.964 744.177C477.934 739.554 484.903 734.931 491.873 730.308C500.844 724.389 511.365 722.273 521.599 723.662C526.715 720.464 532.622 717.832 539.336 716.395C546.131 714.967 552.49 715.037 558.333 715.958L791.948 714.765C799.548 798.201 786.036 842.403 751.412 847.37C726.854 850.894 690.75 851.852 643.102 850.245C664.796 877.109 686.462 904.568 707.565 932.151C709.065 934.089 712.328 938.727 712.317 944.629C712.259 955.448 700.862 960.562 675.684 977.069C646.098 996.616 634.961 1007.28 623.527 1002.06C619.744 1000.46 617.49 997.887 616.563 996.671C604.126 979.871 575.599 948.095 544.262 911.945Z" fill="black"/>
<path opacity="0.176986" d="M544.459 912.678C553.477 895.656 561.52 881.17 568.586 869.22C573.207 861.405 577.585 854.037 581.57 847.367C603.763 848.788 624.194 849.818 642.86 850.456C664.621 877.398 686.355 904.941 707.522 932.607C709.023 934.545 712.285 939.184 712.274 945.085C712.217 955.904 700.819 961.018 675.641 977.526C646.055 997.073 634.918 1007.73 623.484 1002.52C619.701 1000.92 617.447 998.344 616.52 997.127C604.115 980.37 575.702 948.714 544.459 912.678V912.678ZM466.068 816.833C464.529 814.745 463.019 812.672 461.54 810.618C461.452 810.438 461.319 810.392 461.231 810.212C445.576 788.368 449.878 758.68 470.922 744.634C477.891 740.011 484.86 735.388 491.83 730.765C500.838 724.821 511.408 722.712 521.681 724.136C506.718 733.645 498.626 747.944 497.01 750.968L466.068 816.833Z" fill="#444444"/>
<path d="M612.537 654.162C603.527 653.206 590.669 651.908 573.962 650.269C569.968 649.775 566.176 645.599 566.435 641.253C565.622 630.699 572.651 609.821 574.182 605.4C577.682 595.5 583.981 576.4 586.281 567.6C592.681 542.7 600.581 533.4 603.281 530.7C606.381 527.5 609.382 525.3 611.382 523.9C624.882 514.6 639.181 513.2 646.481 513C646.681 512.9 646.881 512.9 647.081 512.9L663.432 512.67C671.939 510.689 680.297 510.052 687.115 509.539C697.094 508.843 707.396 508.11 717.558 509.408L745.382 509.8C745.582 509.8 745.782 509.8 745.982 509.9C753.282 510.1 767.582 511.5 781.082 520.8C783.082 522.2 786.082 524.4 789.182 527.6C791.882 530.3 799.782 539.6 806.182 564.5C808.482 573.3 814.781 592.4 818.281 602.3C819.367 605.436 821.688 615.557 825.244 632.666C825.543 633.124 825.752 633.625 825.853 634.157C825.926 634.611 825.916 635.06 825.831 635.496C826.021 636.418 826.215 637.359 826.412 638.318C825.594 638.334 824.778 638.35 823.966 638.369C822.832 639.279 821.274 639.918 819.501 640.096L792.374 642.97C796.752 670.043 797.266 692.75 794.814 706.946C794.814 707.26 794.703 707.679 794.592 707.994C794.037 711.242 621.386 715.119 620.164 713.966C609.061 704.012 611.504 680.227 611.504 680.227C611.852 670.909 612.196 662.235 612.537 654.162Z" fill="white"/>
<path d="M678.882 534.939L695.352 525.101L706.564 536.909L706.551 537.014C706.267 539.374 704.649 541.249 702.542 541.973L701.028 644.804C701.024 645.087 700.899 645.356 700.686 645.543L685.01 659.226C684.599 659.586 683.975 659.548 683.609 659.142L669.407 643.36C669.212 643.142 669.121 642.85 669.159 642.56L682.656 539.91C680.577 539.094 679.11 537.169 678.882 534.939Z" fill="#3D3C3C"/>
<path opacity="0.2" d="M697.124 508.09C691.413 509.106 670.346 509.344 669.745 516.209C669.345 520.786 669.56 528.72 670.392 540.011L695.352 525.101L713.698 544.423C724.435 527.274 726.151 516.567 718.844 512.303C707.885 505.907 702.835 507.074 697.124 508.09Z" fill="#8C2A00"/>
<path d="M716.617 486.567L711.71 517.381C711.576 518.068 711.148 518.698 710.502 518.878C707.644 519.952 703.669 521.013 698.963 521.117C690.453 521.399 683.75 518.67 680.053 516.728C679.305 516.379 678.869 515.48 679.022 514.694L681.987 497.414C676.44 498.332 676.767 498.196 676.229 498.266C669.74 498.635 664.477 497.408 663.533 497.021C660.057 496.039 656.899 492.369 654.535 486.714C651.317 479.162 649.315 467.974 649.578 455.088C649.529 453.244 649.774 451.458 650.02 449.672L653.042 432.025C653.708 428.079 655.433 424.442 658.004 421.172C659.095 419.754 660.128 418.631 661.32 417.742C668.721 411.293 677.831 410.327 684.903 410.901C688.678 411.146 692.031 411.821 694.394 412.551C695.259 412.821 698.323 413.824 702.782 414.996C705.198 415.67 707.161 416.051 708.32 416.378C722.831 419.81 728.966 419.169 735.565 424.527C736.806 425.481 739.604 427.858 741.685 431.828C747.55 443.054 743.243 455.256 742.027 458.891C738.085 469.738 730.271 475.35 727.754 477.815C724.742 480.813 719.975 484.267 716.617 486.567ZM571.882 690.976L577.418 650.572L602.399 652.98L612.972 654.146L612.332 677.13C616.427 676.508 620.118 676.293 623.404 676.485C647.528 670.78 717.627 654.506 757.365 648.429L757.152 646.43L820.199 639.75C821.973 639.572 823.53 638.934 824.664 638.023C825.015 638.015 825.367 638.007 825.719 638C829.564 667.934 826.473 705.379 790.637 715.857H629.12C629.134 715.905 629.148 715.953 629.164 716H555.062C554.653 706.244 560.259 697.903 571.882 690.976Z" fill="#FFDFAF"/>
<path opacity="0.2" d="M571.863 691.118L577.418 650.572L612.972 654L612.281 677.071C601.434 678.864 593.608 680.595 588.803 682.265C583.998 683.935 578.351 686.886 571.863 691.118Z" fill="#8C2A00"/>
<path d="M759.544 646.641C759.714 647.452 759.195 648.247 758.384 648.417C757.573 648.587 756.778 648.067 756.608 647.256C755.032 639.737 748.843 614.688 743.027 591.667C742.824 590.864 743.311 590.049 744.114 589.846C744.917 589.643 745.733 590.129 745.936 590.933C751.769 614.021 757.956 639.06 759.544 646.641ZM614.153 652.976C614.021 653.794 613.251 654.35 612.433 654.218C611.615 654.086 611.059 653.316 611.191 652.498C612.415 644.913 615.614 619.31 618.434 595.734C618.532 594.912 619.279 594.325 620.101 594.423C620.924 594.522 621.511 595.268 621.413 596.091C618.584 619.736 615.387 645.329 614.153 652.976Z" fill="#482D1F"/>
<path d="M681.766 497.493L696.992 494.044L680.388 506.289L681.766 497.493Z" fill="#482D1F"/>
<path d="M660.49 453.331C660.067 454.981 659.239 457.672 658.066 458.463C656.111 459.611 654.906 454.283 656.773 451.488C657.512 450.307 658.238 450.244 659.004 450.495C660.144 450.92 660.719 452.153 660.49 453.331ZM678.118 456.452C677.892 458.14 677.358 460.888 676.147 461.875C674.35 463.258 672.518 458.012 674.11 455.061C674.751 453.862 675.495 453.701 676.28 453.853C677.458 454.082 678.249 455.255 678.118 456.452Z" fill="#482D1F"/>
<path d="M666.138 475.109C666.864 475.046 668.628 474.88 669.132 473.857C669.17 473.661 669.326 473.385 669.266 473.17C669.007 472.406 667.752 472.57 665.966 472.325C662.787 471.911 660.292 471.12 660.292 471.12C660.292 471.12 660.598 473.217 660.974 473.901C661.767 475.583 665.1 475.212 666.138 475.109Z" fill="#482D1F"/>
<path d="M663.299 454.081L663.335 453.946L663.312 454.012L663.299 454.081ZM659.82 464.164C659.42 465.235 660.067 466.489 661.15 466.893C661.391 466.963 661.391 466.963 661.547 467.006C663.178 467.455 664.205 467.704 665.982 468.05C666.525 468.155 667.05 467.801 667.155 467.259C667.26 466.717 666.906 466.192 666.364 466.086C664.642 465.752 663.664 465.515 662.078 465.078L661.765 464.992C661.763 464.987 661.696 464.857 661.703 464.838L665.226 454.597L665.262 454.462L666.388 448.671C666.493 448.129 666.139 447.604 665.597 447.498C665.055 447.393 664.53 447.747 664.424 448.289L663.312 454.012L659.82 464.164Z" fill="#482D1F"/>
<path d="M725.903 458.053C725.793 461.017 724.667 464.048 722.871 466.312C720.668 469.177 718.098 470.473 714.954 471.244C714.417 471.376 714.089 471.917 714.22 472.454C714.352 472.99 714.893 473.318 715.43 473.187C716.812 472.848 717.929 472.478 719.271 471.802C721.246 470.805 723.008 469.415 724.448 467.543C726.497 464.958 727.776 461.518 727.901 458.127C727.922 457.575 727.491 457.111 726.939 457.091C726.387 457.071 725.923 457.501 725.903 458.053Z" fill="#482D1F"/>
<path d="M725.956 457.712C725.951 455.896 725.587 454.052 724.772 452.277C722.49 447.249 717.077 443.65 712.06 444.305C709.238 444.673 707.07 446.391 706.835 446.549C705.9 447.35 705.127 448.199 704.499 449.004L652.46 434.946C653.607 423.651 659.329 416.164 669.627 412.484C672.409 411.489 679.908 410.025 686.438 410.872C696.517 412.18 706.205 414.952 708.927 415.688C711.147 416.323 714.933 416.703 715.956 417.004C727.073 418.065 735.497 422.995 738.383 425.571C739.466 426.495 741.988 428.819 743.752 432.727C749.284 444.601 744.999 456.91 743.558 459.686C742.55 461.629 741.154 462.784 741.154 462.784C736.994 461.758 731.929 460.067 725.956 457.712ZM654.188 444.873C653.245 444.486 653.198 443.152 654.019 442.599C655.055 441.985 656.778 441.505 658.741 441.887C662.766 442.669 666.57 446.159 661.826 446.459C659.023 446.73 655.958 445.726 654.188 444.873ZM674.276 449.491C673.333 449.104 673.286 447.77 674.205 447.236C675.241 446.622 676.964 446.142 679.026 446.543C683.05 447.325 686.835 450.913 682.11 451.115C679.092 451.446 676.163 450.265 674.276 449.491Z" fill="#482D1F"/>
<path d="M225 715V1072.5C225 1076.37 221.866 1079.5 218 1079.5C214.134 1079.5 211 1076.37 211 1072.5L211 708.5C211 705.131 213.379 702.319 216.549 701.651C217.446 701.233 218.446 701 219.5 701H814.5C818.366 701 821.5 704.134 821.5 708C821.5 711.866 818.366 715 814.5 715H225Z" fill="#6D7A9C"/>
<path d="M464.5 673H303.5C295.492 673 289 679.492 289 687.5C289 695.508 295.492 702 303.5 702H464.5C472.508 702 479 695.508 479 687.5C479 679.492 472.508 673 464.5 673Z" fill="#474961"/>
<path d="M455.5 615H294.5C286.492 615 280 621.492 280 629.5C280 637.508 286.492 644 294.5 644H455.5C463.508 644 470 637.508 470 629.5C470 621.492 463.508 615 455.5 615Z" fill="#474961"/>
<path d="M485.5 644H324.5C316.492 644 310 650.492 310 658.5C310 666.508 316.492 673 324.5 673H485.5C493.508 673 500 666.508 500 658.5C500 650.492 493.508 644 485.5 644Z" fill="#DE3190"/>
<path d="M470.5 586H309.5C301.492 586 295 592.492 295 600.5C295 608.508 301.492 615 309.5 615H470.5C478.508 615 485 608.508 485 600.5C485 592.492 478.508 586 470.5 586Z" fill="#DE3190"/>
<path d="M682 -49H293C279.193 -49 268 -37.8071 268 -24V315C268 328.807 279.193 340 293 340H677C690.807 340 702 328.807 702 315V-29C702 -40.0457 693.046 -49 682 -49Z" fill="#8D9DC6"/>
<path d="M484.5 189C435.071 189 395 148.929 395 99.5C395 50.0705 435.071 10 484.5 10C533.929 10 574 50.0705 574 99.5C574 148.929 533.929 189 484.5 189Z" fill="#D8DEED"/>
<path fill-rule="evenodd" clip-rule="evenodd" d="M491.756 142.92C496.291 144.593 496.05 144.423 496.56 144.592C503.221 146.282 508.931 146.07 509.989 145.859C513.795 145.542 517.814 142.375 521.409 136.99C526.273 129.811 530.608 118.619 532.935 105.21C533.358 103.31 533.463 101.409 533.569 99.5089L533.992 80.6099C534.098 76.3866 533.146 72.1633 531.031 68.3624C530.503 67.3067 529.974 66.3747 529.394 65.5406C529.599 65.4429 529.801 65.3487 530 65.2592C529.47 64.5191 528.941 63.8848 528.517 63.1448C520.363 51.8327 503.313 50.3526 495.476 51.1984C494.523 51.3041 491.135 51.727 486.263 52.0441C483.616 52.2556 481.498 52.2556 480.227 52.3613C464.448 52.9956 458.2 51.0926 450.257 55.3215C448.774 56.0615 445.386 57.9645 442.42 61.6647C434.054 72.131 436.066 85.6633 436.596 89.6806C438.502 101.733 445.491 109.133 447.61 112.199C450.066 115.816 454.16 120.215 457.167 123.273L456 157.402C456 158.159 456.325 158.915 456.976 159.239C459.795 160.968 463.807 162.912 468.795 163.993C477.795 166.045 485.494 164.533 489.831 163.236C490.699 163.02 491.349 162.156 491.349 161.292L491.756 142.92Z" fill="#F3F5F8"/>
<path d="M450.014 93.2048C450.129 90.4895 450.949 87.761 452.681 85.3601C456.158 80.497 462.678 77.7952 467.894 79.5243C470.828 80.497 472.784 82.7664 473.001 82.9826C475.935 86.657 476.587 90.5475 476.587 90.5475L476.705 91.6998C484.155 83.863 493.424 74.1764 500.394 66.7277C504.634 67.9081 511.63 69.0886 519.58 67.3715C522.442 66.7277 524.88 65.2253 527 64.2594C526.47 63.5082 525.94 62.8644 525.622 62.3278C517.354 50.8452 499.97 49.3428 492.02 50.2013C490.96 50.3087 487.568 50.7379 482.586 51.0599C479.83 51.2745 477.71 51.2745 476.438 51.3818C460.326 52.0257 453.966 50.094 445.91 54.3866C444.426 55.1378 440.928 57.0694 437.96 60.8254C428.739 72.2007 430.965 86.0441 432.025 89.2635C432.767 91.5171 434.144 93.0195 434.144 93.0195C439.742 92.7695 444.925 92.9402 450.014 93.2048ZM527.904 92.4367C529.021 92.2032 529.356 90.6854 528.574 89.8681C527.569 88.9341 525.781 88 523.547 88C518.967 88 514.052 91.1524 519.191 92.5535C522.207 93.3708 525.781 92.9038 527.904 92.4367ZM505.947 93.3922C507.046 93.161 507.376 91.6584 506.497 90.8493C505.508 89.9247 503.749 89 501.441 89C496.936 89 492.1 92.2364 497.155 93.5078C500.343 94.4324 503.859 93.8545 505.947 93.3922Z" fill="#E1E5F0"/>
<path d="M523 97.7361C523 96.4343 523.728 95.241 524.821 95.024C525.55 94.9156 526.187 95.1325 526.642 96.5428C527.826 99.9057 525.823 105.33 524.275 103.703C523.364 102.618 523.091 99.5802 523 97.7361Z" fill="#E1E5F0"/>
<path d="M504.038 97.3988C504.128 96.0903 505.026 95 506.104 95C506.823 95 507.451 95.3271 507.811 96.7446C508.709 100.234 506.194 105.467 504.846 103.614C503.948 102.305 503.948 99.2524 504.038 97.3988Z" fill="#E1E5F0"/>
<path d="M511.969 119.311C511.212 119.083 509.373 118.513 509.048 117.259C509.048 117.031 508.94 116.689 509.048 116.461C509.481 115.663 510.779 116.119 512.726 116.233C516.187 116.461 519 116.119 519 116.119C519 116.119 518.243 118.399 517.702 119.083C516.62 120.792 513.159 119.652 511.969 119.311Z" fill="#E1E5F0"/>
<path d="M520.977 109.289C521.166 110.44 520.282 111.579 519.122 111.776C518.866 111.8 518.866 111.8 518.698 111.813C516.957 111.949 515.869 112 514 112C513.448 112 513 111.552 513 111C513 110.448 513.448 110 514 110C515.811 110 516.85 109.952 518.543 109.819L518.877 109.793C518.897 109.786 519.009 109.641 519 109.587L517.448 98.3299L517.438 98.1934V92C517.438 91.4477 517.886 91 518.438 91C518.991 91 519.438 91.4477 519.438 92V98.1248L520.977 109.289Z" fill="#E1E5F0"/>
<path d="M453.181 89.1627C452.67 92.2576 453.258 95.6272 454.743 98.3398C456.552 101.768 459.106 103.643 462.401 105.084C462.907 105.305 463.138 105.895 462.916 106.401C462.695 106.907 462.105 107.138 461.599 106.916C460.167 106.29 459.032 105.686 457.717 104.721C455.778 103.297 454.154 101.509 452.981 99.2866C451.291 96.1977 450.624 92.376 451.207 88.8373C451.297 88.2924 451.812 87.9235 452.357 88.0133C452.902 88.1032 453.271 88.6178 453.181 89.1627Z" fill="#E1E5F0"/>
<path d="M466.5 231H610.5C614.09 231 617 233.91 617 237.5V240.5C617 244.09 614.09 247 610.5 247H466.5C462.91 247 460 244.09 460 240.5V237.5C460 233.91 462.91 231 466.5 231Z" fill="#D8DEED"/>
<path d="M357.5 274H610.5C614.09 274 617 276.91 617 280.5V282.5C617 286.09 614.09 289 610.5 289H357.5C353.91 289 351 286.09 351 282.5V280.5C351 276.91 353.91 274 357.5 274Z" fill="#F2F6FB"/>
<path d="M357.5 231H439.5C443.09 231 446 233.91 446 237.5V240.5C446 244.09 443.09 247 439.5 247H357.5C353.91 247 351 244.09 351 240.5V237.5C351 233.91 353.91 231 357.5 231Z" fill="#D8DEED"/>
<path d="M501.334 471.305L435.666 429C434.789 429.611 434.789 429.611 434 430.308L458.549 504.19C458.549 504.19 468.193 502.882 475.645 498.695L486.78 513C491.185 510.552 494.296 508.628 496.114 507.23C497.932 505.832 500.228 503.597 503 500.526L491.865 486.134C495.022 481.162 498.178 476.19 501.334 471.305Z" fill="#D8DEED"/>
<path d="M347 206H20C8.9543 206 0 214.954 0 226V515C0 526.046 8.9543 535 20 535H347C358.046 535 367 526.046 367 515V226C367 214.954 358.046 206 347 206Z" fill="#F2F6FB"/>
<path d="M0 224.184C0 214.141 8.1364 206 18.1839 206H348.816C358.859 206 367 214.139 367 224.184V242.368H0V224.184Z" fill="#E1E5F0"/>
<path d="M22.8318 233.91C27.502 233.91 31.288 230.123 31.288 225.452C31.288 220.781 27.502 216.995 22.8318 216.995C18.1616 216.995 14.3756 220.781 14.3756 225.452C14.3756 230.123 18.1616 233.91 22.8318 233.91Z" fill="#FF5645"/>
<path d="M49.4689 233.91C54.3727 233.91 58.3479 230.123 58.3479 225.452C58.3479 220.781 54.3727 216.995 49.4689 216.995C44.5652 216.995 40.5899 220.781 40.5899 225.452C40.5899 230.123 44.5652 233.91 49.4689 233.91Z" fill="#FFCB3D"/>
<path d="M76.106 233.91C80.7762 233.91 84.5622 230.123 84.5622 225.452C84.5622 220.781 80.7762 216.995 76.106 216.995C71.4358 216.995 67.6498 220.781 67.6498 225.452C67.6498 230.123 71.4358 233.91 76.106 233.91Z" fill="#3ABF7C"/>
<path d="M78.2211 449.578H198.297C201.801 449.578 204.641 452.418 204.641 455.922C204.641 459.425 201.801 462.265 198.297 462.265H78.2211C74.7178 462.265 71.8779 459.425 71.8779 455.922C71.8779 452.418 74.7178 449.578 78.2211 449.578ZM222.822 449.578H289.625C293.128 449.578 295.968 452.418 295.968 455.922C295.968 459.425 293.128 462.265 289.625 462.265H222.822C219.319 462.265 216.479 459.425 216.479 455.922C216.479 452.418 219.319 449.578 222.822 449.578ZM184.346 422.514C141.846 422.514 107.394 388.056 107.394 345.55C107.394 303.044 141.846 268.586 184.346 268.586C226.845 268.586 261.297 303.044 261.297 345.55C261.297 388.056 226.845 422.514 184.346 422.514Z" fill="#474BFF"/>
<path d="M289.468 485.1H78.3779C74.788 485.1 71.8779 488.01 71.8779 491.6V492.132C71.8779 495.722 74.788 498.632 78.3779 498.632H289.468C293.058 498.632 295.968 495.722 295.968 492.132V491.6C295.968 488.01 293.058 485.1 289.468 485.1Z" fill="#E1E5F0"/>
<path d="M209.853 367.835C212.376 369.239 217.236 372.134 222.75 376.171C229.478 381.26 224.058 391.351 215.741 389.245L204.059 386.261C200.694 385.384 198.358 382.664 198.171 379.417L197.891 374.591C197.61 370.292 201.255 366.694 205.834 366.694C207.236 366.782 208.638 367.133 209.853 367.835Z" fill="#D8DEED"/>
<path d="M195.234 357.884L202.952 356.545L203.774 361.588L203.683 367.891L206.332 391.214C206.332 391.214 183.312 401.389 179.658 396.797L177.471 378.112C177.123 378.227 176.765 378.343 176.399 378.462C168.522 381.041 168.98 380.856 168.43 381.041C162.568 382.33 157.622 381.869 156.706 381.685C149.103 380.672 140.951 366.029 138.203 345.493C137.928 343.835 137.928 342.177 137.836 340.52L138.111 324.035C138.111 320.351 139.119 316.759 140.951 313.628C141.134 313.26 141.317 312.984 141.5 312.707C142.142 311.694 142.783 310.865 143.424 310.129C145.897 307.182 148.828 305.064 151.851 303.59C158.996 300.643 167.056 300.367 171.545 301.011C172.186 301.104 174.201 301.38 177.04 301.748C179.697 302.393 182.261 302.761 184.918 302.853C186.383 302.945 187.483 304.235 187.483 305.708L186.567 329.284C186.475 331.494 188.948 332.876 190.78 331.586C190.78 331.586 190.872 331.586 190.872 331.494C191.146 331.31 193.162 330.113 195.635 330.021C200.032 329.929 204.428 333.705 205.802 338.309C207.268 343.098 205.527 347.979 202.596 351.018C200.49 353.136 198.016 354.057 196.368 354.518C195.543 354.61 194.719 355.347 194.536 356.175C194.536 356.175 194.536 356.267 194.444 356.36L195.234 357.884Z" fill="#F2F6FB"/>
<path d="M194.5 354.992C190.948 348.369 186.776 340.71 183.913 336.474C177.475 329.326 171.037 322.27 164.506 315.122C160.827 316.039 154.757 316.864 147.859 315.214C145.652 314.664 143.156 313.532 141.5 312.707C142.144 311.699 143.151 310.379 143.794 309.646C146.278 306.714 149.187 304.9 152.222 303.434C159.396 300.501 167.726 300.369 172.232 301.01C172.876 301.102 174.9 301.377 177.751 301.743C178.579 301.835 179.406 301.926 180.418 302.018C182.809 302.201 184.649 302.385 185.753 302.476C199.733 303.393 205.159 301.835 212.15 305.684C213.437 306.417 216.38 308.158 218.864 311.365C223.856 317.806 224.35 325.444 224.003 330.668C225.514 337.275 228.251 353.665 220.943 362.907C211.638 374.673 212.755 378.535 212.755 378.535L208.301 375.482L209.714 377.689L205.302 376.414C201.416 374.184 198.914 371.107 197.308 367.948L197.03 367.757L197.134 367.598C194.624 362.439 194.45 357.134 194.5 354.992Z" fill="#D8DEED"/>
<path d="M180.963 346.258L185.498 335.956C185.498 335.956 186.95 333.038 190.124 330.941C190.396 330.759 192.392 329.574 194.841 329.482C199.195 329.391 203.548 333.129 204.909 337.688C206.451 342.429 204.728 347.261 201.825 350.178C198.922 353.096 195.204 353.734 194.024 354.008L189.308 353.552" fill="#F2F6FB"/>
<path d="M148.148 351.686C146.059 355.59 142.038 358.236 137.414 358.236C130.635 358.236 125.152 352.55 125.152 345.55C125.152 338.55 130.635 332.864 137.414 332.864C143.546 332.864 148.617 337.517 149.529 343.586L153.058 343.292C153.138 336.578 158.793 331.172 165.742 331.172C170.964 331.172 175.455 334.225 177.399 338.592L183.295 337.118C183.748 337.005 184.207 337.28 184.32 337.733C184.434 338.186 184.158 338.646 183.705 338.759L177.978 340.191C178.27 341.224 178.426 342.312 178.426 343.436C178.426 350.216 172.741 355.699 165.742 355.699C159.284 355.699 153.943 351.03 153.157 344.981L150.396 345.211L149.675 353.651C149.675 353.797 149.804 353.968 149.828 353.971C150.399 354.017 150.75 354.017 152.192 353.988C152.875 353.974 153.346 353.968 153.903 353.968C154.37 353.968 154.749 354.347 154.749 354.814C154.749 355.281 154.37 355.659 153.903 355.659C153.359 355.659 152.899 355.666 152.226 355.679C150.741 355.709 150.354 355.71 149.719 355.659C148.73 355.632 147.984 354.63 147.987 353.579L148.148 351.686ZM145.17 344.028C145.435 345.617 145.7 348.178 144.993 349.325C143.844 351.18 140.749 346.942 141.28 343.94C141.545 342.704 142.164 342.174 142.871 342.174C144.02 342.085 144.993 342.88 145.17 344.028ZM156 360.769C155.114 361.139 152.535 362.249 151.649 361.139C151.246 360.676 150.521 359.104 150.521 359.104C150.521 359.104 152.696 359.104 155.275 358.641C156.726 358.363 157.773 357.993 158.096 358.456C158.176 358.548 158.096 358.826 158.096 359.011C157.934 359.936 156.564 360.584 156 360.769ZM175.915 339.423C174.273 335.577 170.34 332.864 165.742 332.864C159.664 332.864 154.749 337.604 154.749 343.436C154.749 349.267 159.664 354.008 165.742 354.008C171.82 354.008 176.735 349.267 176.735 343.436C176.735 342.353 176.566 341.307 176.251 340.323C176.089 340.21 175.966 340.041 175.915 339.835C175.88 339.695 175.882 339.554 175.915 339.423ZM137.414 356.545C143.244 356.545 147.984 351.629 147.984 345.55C147.984 339.471 143.244 334.555 137.414 334.555C131.583 334.555 126.843 339.471 126.843 345.55C126.843 351.629 131.583 356.545 137.414 356.545Z" fill="#D8DEED"/>
<path d="M162.928 342.336C162.751 341.189 161.779 340.394 160.629 340.482C159.922 340.482 159.303 341.012 159.038 342.248C158.507 345.25 161.602 349.488 162.751 347.634C163.459 346.486 163.193 343.926 162.928 342.336Z" fill="#D8DEED"/>
</svg>
